G04 #@! TF.FileFunction,Soldermask,Top*
%FSLAX46Y46*%
G04 Gerber Fmt 4.6, Leading zero omitted, Abs format (unit mm)*
G04 Created by KiCad (PCBNEW 4.0.7) date 08/16/18 23:45:15*
%MOMM*%
%LPD*%
G01*
G04 APERTURE LIST*
%ADD10C,0.100000*%
%ADD11R,2.100000X2.100000*%
%ADD12O,2.100000X2.100000*%
%ADD13C,3.600000*%
%ADD14R,1.400000X1.400000*%
%ADD15O,1.400000X1.400000*%
%ADD16R,2.150000X2.150000*%
%ADD17C,2.150000*%
%ADD18R,2.900000X2.400000*%
%ADD19R,2.400000X2.900000*%
%ADD20C,2.000000*%
%ADD21O,2.000000X2.000000*%
G04 APERTURE END LIST*
D10*
D11*
X102806500Y-85534500D03*
D12*
X100266500Y-85534500D03*
X97726500Y-85534500D03*
X95186500Y-85534500D03*
X92646500Y-85534500D03*
X90106500Y-85534500D03*
X87566500Y-85534500D03*
X85026500Y-85534500D03*
D13*
X86296500Y-96964500D03*
D14*
X138684000Y-88900000D03*
D15*
X138684000Y-90170000D03*
D14*
X123698000Y-102870000D03*
D15*
X123698000Y-101600000D03*
X123698000Y-100330000D03*
X123698000Y-99060000D03*
X123698000Y-97790000D03*
X123698000Y-96520000D03*
X123698000Y-95250000D03*
X123698000Y-93980000D03*
X123698000Y-92710000D03*
X123698000Y-91440000D03*
X123698000Y-90170000D03*
X123698000Y-88900000D03*
D11*
X121158000Y-61849000D03*
D12*
X118618000Y-61849000D03*
X116078000Y-61849000D03*
X113538000Y-61849000D03*
X110998000Y-61849000D03*
X108458000Y-61849000D03*
X105918000Y-61849000D03*
X103378000Y-61849000D03*
X100838000Y-61849000D03*
X98298000Y-61849000D03*
X95758000Y-61849000D03*
X93218000Y-61849000D03*
X90678000Y-61849000D03*
X88138000Y-61849000D03*
X85598000Y-61849000D03*
X83058000Y-61849000D03*
X80518000Y-61849000D03*
D11*
X101092000Y-103886000D03*
X87630000Y-103886000D03*
X90551000Y-121285000D03*
D12*
X93091000Y-121285000D03*
X95631000Y-121285000D03*
X98171000Y-121285000D03*
D11*
X80518000Y-79629000D03*
D12*
X83058000Y-79629000D03*
X85598000Y-79629000D03*
X88138000Y-79629000D03*
X90678000Y-79629000D03*
X93218000Y-79629000D03*
X95758000Y-79629000D03*
X98298000Y-79629000D03*
X100838000Y-79629000D03*
X103378000Y-79629000D03*
X105918000Y-79629000D03*
X108458000Y-79629000D03*
X110998000Y-79629000D03*
X113538000Y-79629000D03*
X116078000Y-79629000D03*
X118618000Y-79629000D03*
X121158000Y-79629000D03*
D11*
X110744000Y-106045000D03*
D12*
X113284000Y-106045000D03*
X115824000Y-106045000D03*
D11*
X105600500Y-118173500D03*
D12*
X105600500Y-115633500D03*
X105600500Y-113093500D03*
X105600500Y-110553500D03*
D11*
X111379000Y-110871000D03*
D12*
X113919000Y-110871000D03*
X116459000Y-110871000D03*
X118999000Y-110871000D03*
X121539000Y-110871000D03*
X124079000Y-110871000D03*
D13*
X101536500Y-96964500D03*
X74612500Y-124650500D03*
X74612500Y-104076500D03*
D16*
X76454000Y-86614000D03*
D17*
X76454000Y-89114000D03*
X76454000Y-91614000D03*
X76454000Y-94114000D03*
X76454000Y-96614000D03*
D13*
X76708000Y-69088000D03*
X136652000Y-69088000D03*
X117729000Y-124079000D03*
D16*
X137922000Y-77597000D03*
D17*
X137922000Y-80097000D03*
D18*
X118935500Y-91281500D03*
X118935500Y-95281500D03*
D19*
X130270000Y-85344000D03*
X126270000Y-85344000D03*
D20*
X118935500Y-85915500D03*
D21*
X118935500Y-98615500D03*
D20*
X135763000Y-85344000D03*
D21*
X123063000Y-85344000D03*
D16*
X136652000Y-110998000D03*
D17*
X136652000Y-113498000D03*
X136652000Y-115998000D03*
X136652000Y-118498000D03*
X136652000Y-120998000D03*
X136652000Y-123498000D03*
M02*
