M48
;DRILL file {KiCad 4.0.7} date 08/16/18 23:45:18
;FORMAT={-:-/ absolute / metric / decimal}
FMAT,2
METRIC,TZ
T1C0.400
T2C0.700
T3C0.800
T4C1.000
T5C1.050
%
G90
G05
M71
T1
X80.391Y-82.169
X82.677Y-81.407
X105.918Y-105.283
X106.68Y-105.918
X108.077Y-82.804
X108.331Y-98.552
X111.633Y-81.661
X111.887Y-87.757
X112.268Y-82.423
X113.157Y-83.185
X114.3Y-90.424
X115.189Y-86.487
X116.078Y-88.519
X116.713Y-95.123
X116.713Y-96.774
X118.872Y-67.437
X118.999Y-93.345
X120.904Y-68.199
X125.476Y-105.664
X126.492Y-105.918
X127.635Y-105.918
X127.889Y-83.185
T2
X123.698Y-88.9
X123.698Y-90.17
X123.698Y-91.44
X123.698Y-92.71
X123.698Y-93.98
X123.698Y-95.25
X123.698Y-96.52
X123.698Y-97.79
X123.698Y-99.06
X123.698Y-100.33
X123.698Y-101.6
X123.698Y-102.87
X138.684Y-88.9
X138.684Y-90.17
T3
X118.935Y-85.915
X118.935Y-98.615
X123.063Y-85.344
X135.763Y-85.344
T4
X76.454Y-86.614
X76.454Y-89.114
X76.454Y-91.614
X76.454Y-94.114
X76.454Y-96.614
X80.518Y-61.849
X80.518Y-79.629
X83.058Y-61.849
X83.058Y-79.629
X85.026Y-85.534
X85.598Y-61.849
X85.598Y-79.629
X87.566Y-85.534
X87.63Y-103.886
X88.138Y-61.849
X88.138Y-79.629
X90.106Y-85.534
X90.551Y-121.285
X90.678Y-61.849
X90.678Y-79.629
X92.646Y-85.534
X93.091Y-121.285
X93.218Y-61.849
X93.218Y-79.629
X95.186Y-85.534
X95.631Y-121.285
X95.758Y-61.849
X95.758Y-79.629
X97.727Y-85.534
X98.171Y-121.285
X98.298Y-61.849
X98.298Y-79.629
X100.266Y-85.534
X100.838Y-61.849
X100.838Y-79.629
X101.092Y-103.886
X102.806Y-85.534
X103.378Y-61.849
X103.378Y-79.629
X105.6Y-110.553
X105.6Y-113.093
X105.6Y-115.633
X105.6Y-118.173
X105.918Y-61.849
X105.918Y-79.629
X108.458Y-61.849
X108.458Y-79.629
X110.744Y-106.045
X110.998Y-61.849
X110.998Y-79.629
X111.379Y-110.871
X113.284Y-106.045
X113.538Y-61.849
X113.538Y-79.629
X113.919Y-110.871
X115.824Y-106.045
X116.078Y-61.849
X116.078Y-79.629
X116.459Y-110.871
X118.618Y-61.849
X118.618Y-79.629
X118.999Y-110.871
X121.158Y-61.849
X121.158Y-79.629
X121.539Y-110.871
X124.079Y-110.871
X136.652Y-110.998
X136.652Y-113.498
X136.652Y-115.998
X136.652Y-118.498
X136.652Y-120.998
X136.652Y-123.498
T5
X137.922Y-77.597
X137.922Y-80.097
T0
M30
