  0
SECTION
  2
HEADER
  9
$ACADVER
  1
AC1012
  9
$DWGCODEPAGE
  3
gb2312
  9
$INSBASE
 10
0.0
 20
0.0
 30
0.0
  9
$EXTMIN
 10
1.000000000000000E+20
 20
1.000000000000000E+20
 30
1.000000000000000E+20
  9
$EXTMAX
 10
-1.000000000000000E+20
 20
-1.000000000000000E+20
 30
-1.000000000000000E+20
  9
$LIMMIN
 10
0.0
 20
0.0
  9
$LIMMAX
 10
420.0
 20
297.0
  9
$ORTHOMODE
 70
     0
  9
$REGENMODE
 70
     1
  9
$FILLMODE
 70
     1
  9
$QTEXTMODE
 70
     0
  9
$MIRRTEXT
 70
     1
  9
$DRAGMODE
 70
     2
  9
$LTSCALE
 40
1.0
  9
$OSMODE
 70
    37
  9
$ATTMODE
 70
     1
  9
$TEXTSIZE
 40
2.5
  9
$TRACEWID
 40
1.0
  9
$TEXTSTYLE
  7
STANDARD
  9
$CLAYER
  8
0
  9
$CELTYPE
  6
BYLAYER
  9
$CECOLOR
 62
   256
  9
$CELTSCALE
 40
1.0
  9
$DELOBJ
 70
     1
  9
$DISPSILH
 70
     0
  9
$DIMSCALE
 40
1.0
  9
$DIMASZ
 40
2.5
  9
$DIMEXO
 40
0.625
  9
$DIMDLI
 40
3.75
  9
$DIMRND
 40
0.0
  9
$DIMDLE
 40
0.0
  9
$DIMEXE
 40
1.25
  9
$DIMTP
 40
0.0
  9
$DIMTM
 40
0.0
  9
$DIMTXT
 40
2.5
  9
$DIMCEN
 40
2.5
  9
$DIMTSZ
 40
0.0
  9
$DIMTOL
 70
     0
  9
$DIMLIM
 70
     0
  9
$DIMTIH
 70
     0
  9
$DIMTOH
 70
     0
  9
$DIMSE1
 70
     0
  9
$DIMSE2
 70
     0
  9
$DIMTAD
 70
     1
  9
$DIMZIN
 70
     8
  9
$DIMBLK
  1

  9
$DIMASO
 70
     1
  9
$DIMSHO
 70
     1
  9
$DIMPOST
  1

  9
$DIMAPOST
  1

  9
$DIMALT
 70
     0
  9
$DIMALTD
 70
     3
  9
$DIMALTF
 40
0.03937007874016
  9
$DIMLFAC
 40
1.0
  9
$DIMTOFL
 70
     1
  9
$DIMTVP
 40
0.0
  9
$DIMTIX
 70
     0
  9
$DIMSOXD
 70
     0
  9
$DIMSAH
 70
     0
  9
$DIMBLK1
  1

  9
$DIMBLK2
  1

  9
$DIMSTYLE
  2
ISO-25
  9
$DIMCLRD
 70
     0
  9
$DIMCLRE
 70
     0
  9
$DIMCLRT
 70
     0
  9
$DIMTFAC
 40
1.0
  9
$DIMGAP
 40
0.625
  9
$DIMJUST
 70
     0
  9
$DIMSD1
 70
     0
  9
$DIMSD2
 70
     0
  9
$DIMTOLJ
 70
     0
  9
$DIMTZIN
 70
     8
  9
$DIMALTZ
 70
     0
  9
$DIMALTTZ
 70
     0
  9
$DIMFIT
 70
     3
  9
$DIMUPT
 70
     0
  9
$DIMUNIT
 70
     2
  9
$DIMDEC
 70
     2
  9
$DIMTDEC
 70
     2
  9
$DIMALTU
 70
     2
  9
$DIMALTTD
 70
     3
  9
$DIMTXSTY
  7
STANDARD
  9
$DIMAUNIT
 70
     0
  9
$LUNITS
 70
     2
  9
$LUPREC
 70
     4
  9
$SKETCHINC
 40
1.0
  9
$FILLETRAD
 40
10.0
  9
$AUNITS
 70
     0
  9
$AUPREC
 70
     0
  9
$MENU
  1
.
  9
$ELEVATION
 40
0.0
  9
$PELEVATION
 40
0.0
  9
$THICKNESS
 40
0.0
  9
$LIMCHECK
 70
     0
  9
$BLIPMODE
 70
     0
  9
$CHAMFERA
 40
10.0
  9
$CHAMFERB
 40
10.0
  9
$CHAMFERC
 40
20.0
  9
$CHAMFERD
 40
0.0
  9
$SKPOLY
 70
     0
  9
$TDCREATE
 40
2453935.933843252
  9
$TDUPDATE
 40
2453935.934398680
  9
$TDINDWG
 40
0.0005563542
  9
$TDUSRTIMER
 40
0.0005562384
  9
$USRTIMER
 70
     1
  9
$ANGBASE
 50
0.0
  9
$ANGDIR
 70
     0
  9
$PDMODE
 70
     0
  9
$PDSIZE
 40
0.0
  9
$PLINEWID
 40
0.0
  9
$COORDS
 70
     1
  9
$SPLFRAME
 70
     0
  9
$SPLINETYPE
 70
     6
  9
$SPLINESEGS
 70
     8
  9
$ATTDIA
 70
     0
  9
$ATTREQ
 70
     1
  9
$HANDLING
 70
 22529
  9
$HANDSEED
  5
4A
  9
$SURFTAB1
 70
     6
  9
$SURFTAB2
 70
     6
  9
$SURFTYPE
 70
     6
  9
$SURFU
 70
     6
  9
$SURFV
 70
     6
  9
$UCSNAME
  2

  9
$UCSORG
 10
0.0
 20
0.0
 30
0.0
  9
$UCSXDIR
 10
1.0
 20
0.0
 30
0.0
  9
$UCSYDIR
 10
0.0
 20
1.0
 30
0.0
  9
$PUCSNAME
  2

  9
$PUCSORG
 10
0.0
 20
0.0
 30
0.0
  9
$PUCSXDIR
 10
1.0
 20
0.0
 30
0.0
  9
$PUCSYDIR
 10
0.0
 20
1.0
 30
0.0
  9
$USERI1
 70
     0
  9
$USERI2
 70
     0
  9
$USERI3
 70
     0
  9
$USERI4
 70
     0
  9
$USERI5
 70
     0
  9
$USERR1
 40
0.0
  9
$USERR2
 40
0.0
  9
$USERR3
 40
0.0
  9
$USERR4
 40
0.0
  9
$USERR5
 40
0.0
  9
$WORLDVIEW
 70
     1
  9
$SHADEDGE
 70
     3
  9
$SHADEDIF
 70
    70
  9
$TILEMODE
 70
     1
  9
$MAXACTVP
 70
    64
  9
$PINSBASE
 10
0.0
 20
0.0
 30
0.0
  9
$PLIMCHECK
 70
     0
  9
$PEXTMIN
 10
1.000000000000000E+20
 20
1.000000000000000E+20
 30
1.000000000000000E+20
  9
$PEXTMAX
 10
-1.000000000000000E+20
 20
-1.000000000000000E+20
 30
-1.000000000000000E+20
  9
$PLIMMIN
 10
0.0
 20
0.0
  9
$PLIMMAX
 10
420.0
 20
297.0
  9
$UNITMODE
 70
     0
  9
$VISRETAIN
 70
     1
  9
$PLINEGEN
 70
     0
  9
$PSLTSCALE
 70
     1
  9
$TREEDEPTH
 70
  3020
  9
$PICKSTYLE
 70
     1
  9
$CMLSTYLE
  2
STANDARD
  9
$CMLJUST
 70
     0
  9
$CMLSCALE
 40
20.0
  9
$SAVEIMAGES
 70
     1
  0
ENDSEC
  0
SECTION
  2
CLASSES
  0
CLASS
  1
ACDBDICTIONARYWDFLT
  2
AcDbDictionaryWithDefault
  3
AutoCAD 2000
 90
    32768
280
     0
281
     0
  0
CLASS
  1
ACDBPLACEHOLDER
  2
AcDbPlaceHolder
  3
AutoCAD 2000
 90
    32768
280
     0
281
     0
  0
CLASS
  1
LAYOUT
  2
AcDbLayout
  3
AutoCAD 2000
 90
    32768
280
     0
281
     0
  0
CLASS
  1
DICTIONARYVAR
  2
AcDbDictionaryVar
  3
AutoCAD 2000
 90
    32768
280
     0
281
     0
  0
CLASS
  1
LONG_TRANSACTION
  2
AcDbLongTransaction
  3
AutoCAD 2000
 90
    32768
280
     0
281
     0
  0
CLASS
  1
LWPOLYLINE
  2
AcDbPolyline
  3
AutoCAD 2000
 90
    32768
280
     0
281
     1
  0
CLASS
  1
HATCH
  2
AcDbHatch
  3
AutoCAD 2000
 90
    32768
280
     0
281
     1
  0
CLASS
  1
XRECORD
  2
AcDbXrecord
  3
AutoCAD 2000
 90
    32768
280
     0
281
     0
  0
ENDSEC
  0
SECTION
  2
TABLES
  0
TABLE
  2
VPORT
  5
8
330
0
100
AcDbSymbolTable
 70
     2
  0
VPORT
  5
43
330
8
100
AcDbSymbolTableRecord
100
AcDbViewportTableRecord
  2
*ACTIVE
 70
     0
 10
0.0
 20
0.0
 11
1.0
 21
1.0
 12
505.3812210517317
 22
257.5500453436709
 13
0.0
 23
0.0
 14
10.0
 24
10.0
 15
10.0
 25
10.0
 16
0.0
 26
0.0
 36
1.0
 17
0.0
 27
0.0
 37
0.0
 40
515.1000906873419
 41
1.962264150943396
 42
50.0
 43
0.0
 44
0.0
 50
0.0
 51
0.0
 71
     0
 72
   100
 73
     1
 74
     3
 75
     0
 76
     0
 77
     0
 78
     0
  0
ENDTAB
  0
TABLE
  2
LTYPE
  5
5
330
0
100
AcDbSymbolTable
 70
     1
  0
LTYPE
  5
14
330
5
100
AcDbSymbolTableRecord
100
AcDbLinetypeTableRecord
  2
BYBLOCK
 70
     0
  3

 72
    65
 73
     0
 40
0.0
  0
LTYPE
  5
15
330
5
100
AcDbSymbolTableRecord
100
AcDbLinetypeTableRecord
  2
BYLAYER
 70
     0
  3

 72
    65
 73
     0
 40
0.0
  0
LTYPE
  5
16
330
5
100
AcDbSymbolTableRecord
100
AcDbLinetypeTableRecord
  2
CONTINUOUS
 70
     0
  3
Solid line
 72
    65
 73
     0
 40
0.0
  0
ENDTAB
  0
TABLE
  2
LAYER
  5
2
330
0
100
AcDbSymbolTable
 70
     1
  0
LAYER
  5
10
330
2
100
AcDbSymbolTableRecord
100
AcDbLayerTableRecord
  2
0
 70
     0
 62
     7
  6
CONTINUOUS
  0
ENDTAB
  0
TABLE
  2
STYLE
  5
3
330
0
100
AcDbSymbolTable
 70
     1
  0
STYLE
  5
11
330
3
100
AcDbSymbolTableRecord
100
AcDbTextStyleTableRecord
  2
STANDARD
 70
     0
 40
0.0
 41
1.0
 50
0.0
 71
     0
 42
2.5
  3
txt
  4

  0
ENDTAB
  0
TABLE
  2
VIEW
  5
6
330
0
100
AcDbSymbolTable
 70
     0
  0
ENDTAB
  0
TABLE
  2
UCS
  5
7
330
0
100
AcDbSymbolTable
 70
     0
  0
ENDTAB
  0
TABLE
  2
APPID
  5
9
330
0
100
AcDbSymbolTable
 70
     1
  0
APPID
  5
12
330
9
100
AcDbSymbolTableRecord
100
AcDbRegAppTableRecord
  2
ACAD
 70
     0
  0
ENDTAB
  0
TABLE
  2
DIMSTYLE
  5
A
330
0
100
AcDbSymbolTable
 70
     1
  0
DIMSTYLE
105
27
330
A
100
AcDbSymbolTableRecord
100
AcDbDimStyleTableRecord
  2
ISO-25
 70
     0
  3

  4

  5

  6

  7

 40
1.0
 41
2.5
 42
0.625
 43
3.75
 44
1.25
 45
0.0
 46
0.0
 47
0.0
 48
0.0
140
2.5
141
2.5
142
0.0
143
0.03937007874016
144
1.0
145
0.0
146
1.0
147
0.625
 71
     0
 72
     0
 73
     0
 74
     0
 75
     0
 76
     0
 77
     1
 78
     8
170
     0
171
     3
172
     1
173
     0
174
     0
175
     0
176
     0
177
     0
178
     0
270
     2
271
     2
272
     2
273
     2
274
     3
340
11
275
     0
280
     0
281
     0
282
     0
283
     0
284
     8
285
     0
286
     0
287
     3
288
     0
  0
ENDTAB
  0
TABLE
  2
BLOCK_RECORD
  5
1
330
0
100
AcDbSymbolTable
 70
     1
  0
BLOCK_RECORD
  5
1F
102
{ACAD_XDICTIONARY
360
46
102
}
330
1
100
AcDbSymbolTableRecord
100
AcDbBlockTableRecord
  2
*MODEL_SPACE
  0
BLOCK_RECORD
  5
1B
102
{ACAD_XDICTIONARY
360
44
102
}
330
1
100
AcDbSymbolTableRecord
100
AcDbBlockTableRecord
  2
*PAPER_SPACE
  0
ENDTAB
  0
ENDSEC
  0
SECTION
  2
BLOCKS
  0
BLOCK
  5
20
330
1F
100
AcDbEntity
  8
0
100
AcDbBlockBegin
  2
*MODEL_SPACE
 70
     0
 10
0.0
 20
0.0
 30
0.0
  3
*MODEL_SPACE
  1

  0
ENDBLK
  5
21
330
1F
100
AcDbEntity
  8
0
100
AcDbBlockEnd
  0
BLOCK
  5
1C
330
1B
100
AcDbEntity
 67
     1
  8
0
100
AcDbBlockBegin
  2
*PAPER_SPACE
 70
     0
 10
0.0
 20
0.0
 30
0.0
  3
*PAPER_SPACE
  1

  0
ENDBLK
  5
1D
330
1B
100
AcDbEntity
 67
     1
  8
0
100
AcDbBlockEnd
  0
ENDSEC
  0
SECTION
  2
ENTITIES
  0
SPLINE
  5
100
330
1F
100
AcDbEntity
  8
0
 62
     4
100
AcDbSpline
210
0.000000
220
0.000000
230
1.0
 70
     8
 71
     3
 72
     8
 73
     4
 42
0.0000000001
 43
0.0000000001
 44
0.0000000001
 12
0.000000
 22
0.000000
 32
0.000000
 13
0.000000
 23
0.000000
 33
0.000000
 40
0.000000
 40
0.000000
 40
0.000000
 40
0.000000
 40
1.000000
 40
1.000000
 40
1.000000
 40
1.000000
 10
129.629761
 20
32.892655
 30
0.000000
 10
129.250063
 20
32.893070
 30
0.000000
 10
128.870881
 20
32.791468
 30
0.000000
 10
128.542261
 20
32.601260
 30
0.000000
  0
SPLINE
  5
101
330
1F
100
AcDbEntity
  8
0
 62
     4
100
AcDbSpline
210
0.000000
220
0.000000
230
1.0
 70
     8
 71
     3
 72
     8
 73
     4
 42
0.0000000001
 43
0.0000000001
 44
0.0000000001
 12
0.000000
 22
0.000000
 32
0.000000
 13
0.000000
 23
0.000000
 33
0.000000
 40
0.000000
 40
0.000000
 40
0.000000
 40
0.000000
 40
1.000000
 40
1.000000
 40
1.000000
 40
1.000000
 10
128.542261
 20
32.601260
 30
0.000000
 10
128.213226
 20
32.411771
 30
0.000000
 10
127.935645
 20
32.134190
 30
0.000000
 10
127.746155
 20
31.805155
 30
0.000000
  0
SPLINE
  5
102
330
1F
100
AcDbEntity
  8
0
 62
     4
100
AcDbSpline
210
0.000000
220
0.000000
230
1.0
 70
     8
 71
     3
 72
     8
 73
     4
 42
0.0000000001
 43
0.0000000001
 44
0.0000000001
 12
0.000000
 22
0.000000
 32
0.000000
 13
0.000000
 23
0.000000
 33
0.000000
 40
0.000000
 40
0.000000
 40
0.000000
 40
0.000000
 40
1.000000
 40
1.000000
 40
1.000000
 40
1.000000
 10
127.746155
 20
31.805155
 30
0.000000
 10
127.555948
 20
31.476535
 30
0.000000
 10
127.454346
 20
31.097352
 30
0.000000
 10
127.454761
 20
30.717655
 30
0.000000
  0
SPLINE
  5
103
330
1F
100
AcDbEntity
  8
0
 62
     4
100
AcDbSpline
210
0.000000
220
0.000000
230
1.0
 70
     8
 71
     3
 72
     8
 73
     4
 42
0.0000000001
 43
0.0000000001
 44
0.0000000001
 12
0.000000
 22
0.000000
 32
0.000000
 13
0.000000
 23
0.000000
 33
0.000000
 40
0.000000
 40
0.000000
 40
0.000000
 40
0.000000
 40
1.000000
 40
1.000000
 40
1.000000
 40
1.000000
 10
127.454761
 20
30.717655
 30
0.000000
 10
127.454346
 20
30.337958
 30
0.000000
 10
127.555948
 20
29.958775
 30
0.000000
 10
127.746155
 20
29.630155
 30
0.000000
  0
SPLINE
  5
104
330
1F
100
AcDbEntity
  8
0
 62
     4
100
AcDbSpline
210
0.000000
220
0.000000
230
1.0
 70
     8
 71
     3
 72
     8
 73
     4
 42
0.0000000001
 43
0.0000000001
 44
0.0000000001
 12
0.000000
 22
0.000000
 32
0.000000
 13
0.000000
 23
0.000000
 33
0.000000
 40
0.000000
 40
0.000000
 40
0.000000
 40
0.000000
 40
1.000000
 40
1.000000
 40
1.000000
 40
1.000000
 10
127.746155
 20
29.630155
 30
0.000000
 10
127.935645
 20
29.301120
 30
0.000000
 10
128.213226
 20
29.023539
 30
0.000000
 10
128.542261
 20
28.834050
 30
0.000000
  0
SPLINE
  5
105
330
1F
100
AcDbEntity
  8
0
 62
     4
100
AcDbSpline
210
0.000000
220
0.000000
230
1.0
 70
     8
 71
     3
 72
     8
 73
     4
 42
0.0000000001
 43
0.0000000001
 44
0.0000000001
 12
0.000000
 22
0.000000
 32
0.000000
 13
0.000000
 23
0.000000
 33
0.000000
 40
0.000000
 40
0.000000
 40
0.000000
 40
0.000000
 40
1.000000
 40
1.000000
 40
1.000000
 40
1.000000
 10
128.542261
 20
28.834050
 30
0.000000
 10
128.870881
 20
28.643842
 30
0.000000
 10
129.250063
 20
28.542240
 30
0.000000
 10
129.629761
 20
28.542655
 30
0.000000
  0
SPLINE
  5
106
330
1F
100
AcDbEntity
  8
0
 62
     4
100
AcDbSpline
210
0.000000
220
0.000000
230
1.0
 70
     8
 71
     3
 72
     8
 73
     4
 42
0.0000000001
 43
0.0000000001
 44
0.0000000001
 12
0.000000
 22
0.000000
 32
0.000000
 13
0.000000
 23
0.000000
 33
0.000000
 40
0.000000
 40
0.000000
 40
0.000000
 40
0.000000
 40
1.000000
 40
1.000000
 40
1.000000
 40
1.000000
 10
129.629761
 20
28.542655
 30
0.000000
 10
130.009458
 20
28.542240
 30
0.000000
 10
130.388641
 20
28.643842
 30
0.000000
 10
130.717261
 20
28.834050
 30
0.000000
  0
SPLINE
  5
107
330
1F
100
AcDbEntity
  8
0
 62
     4
100
AcDbSpline
210
0.000000
220
0.000000
230
1.0
 70
     8
 71
     3
 72
     8
 73
     4
 42
0.0000000001
 43
0.0000000001
 44
0.0000000001
 12
0.000000
 22
0.000000
 32
0.000000
 13
0.000000
 23
0.000000
 33
0.000000
 40
0.000000
 40
0.000000
 40
0.000000
 40
0.000000
 40
1.000000
 40
1.000000
 40
1.000000
 40
1.000000
 10
130.717261
 20
28.834050
 30
0.000000
 10
131.046296
 20
29.023539
 30
0.000000
 10
131.323877
 20
29.301120
 30
0.000000
 10
131.513366
 20
29.630155
 30
0.000000
  0
SPLINE
  5
108
330
1F
100
AcDbEntity
  8
0
 62
     4
100
AcDbSpline
210
0.000000
220
0.000000
230
1.0
 70
     8
 71
     3
 72
     8
 73
     4
 42
0.0000000001
 43
0.0000000001
 44
0.0000000001
 12
0.000000
 22
0.000000
 32
0.000000
 13
0.000000
 23
0.000000
 33
0.000000
 40
0.000000
 40
0.000000
 40
0.000000
 40
0.000000
 40
1.000000
 40
1.000000
 40
1.000000
 40
1.000000
 10
131.513366
 20
29.630155
 30
0.000000
 10
131.703574
 20
29.958775
 30
0.000000
 10
131.805176
 20
30.337958
 30
0.000000
 10
131.804761
 20
30.717655
 30
0.000000
  0
SPLINE
  5
109
330
1F
100
AcDbEntity
  8
0
 62
     4
100
AcDbSpline
210
0.000000
220
0.000000
230
1.0
 70
     8
 71
     3
 72
     8
 73
     4
 42
0.0000000001
 43
0.0000000001
 44
0.0000000001
 12
0.000000
 22
0.000000
 32
0.000000
 13
0.000000
 23
0.000000
 33
0.000000
 40
0.000000
 40
0.000000
 40
0.000000
 40
0.000000
 40
1.000000
 40
1.000000
 40
1.000000
 40
1.000000
 10
131.804761
 20
30.717655
 30
0.000000
 10
131.805176
 20
31.097352
 30
0.000000
 10
131.703574
 20
31.476535
 30
0.000000
 10
131.513366
 20
31.805155
 30
0.000000
  0
SPLINE
  5
110
330
1F
100
AcDbEntity
  8
0
 62
     4
100
AcDbSpline
210
0.000000
220
0.000000
230
1.0
 70
     8
 71
     3
 72
     8
 73
     4
 42
0.0000000001
 43
0.0000000001
 44
0.0000000001
 12
0.000000
 22
0.000000
 32
0.000000
 13
0.000000
 23
0.000000
 33
0.000000
 40
0.000000
 40
0.000000
 40
0.000000
 40
0.000000
 40
1.000000
 40
1.000000
 40
1.000000
 40
1.000000
 10
131.513366
 20
31.805155
 30
0.000000
 10
131.323877
 20
32.134190
 30
0.000000
 10
131.046296
 20
32.411771
 30
0.000000
 10
130.717261
 20
32.601260
 30
0.000000
  0
SPLINE
  5
111
330
1F
100
AcDbEntity
  8
0
 62
     4
100
AcDbSpline
210
0.000000
220
0.000000
230
1.0
 70
     8
 71
     3
 72
     8
 73
     4
 42
0.0000000001
 43
0.0000000001
 44
0.0000000001
 12
0.000000
 22
0.000000
 32
0.000000
 13
0.000000
 23
0.000000
 33
0.000000
 40
0.000000
 40
0.000000
 40
0.000000
 40
0.000000
 40
1.000000
 40
1.000000
 40
1.000000
 40
1.000000
 10
130.717261
 20
32.601260
 30
0.000000
 10
130.388641
 20
32.791468
 30
0.000000
 10
130.009458
 20
32.893070
 30
0.000000
 10
129.629761
 20
32.892655
 30
0.000000
  0
SPLINE
  5
112
330
1F
100
AcDbEntity
  8
0
 62
     4
100
AcDbSpline
210
0.000000
220
0.000000
230
1.0
 70
     8
 71
     3
 72
     8
 73
     4
 42
0.0000000001
 43
0.0000000001
 44
0.0000000001
 12
0.000000
 22
0.000000
 32
0.000000
 13
0.000000
 23
0.000000
 33
0.000000
 40
0.000000
 40
0.000000
 40
0.000000
 40
0.000000
 40
1.000000
 40
1.000000
 40
1.000000
 40
1.000000
 10
49.630427
 20
112.891989
 30
0.000000
 10
49.250730
 20
112.892403
 30
0.000000
 10
48.871547
 20
112.790802
 30
0.000000
 10
48.542927
 20
112.600594
 30
0.000000
  0
SPLINE
  5
113
330
1F
100
AcDbEntity
  8
0
 62
     4
100
AcDbSpline
210
0.000000
220
0.000000
230
1.0
 70
     8
 71
     3
 72
     8
 73
     4
 42
0.0000000001
 43
0.0000000001
 44
0.0000000001
 12
0.000000
 22
0.000000
 32
0.000000
 13
0.000000
 23
0.000000
 33
0.000000
 40
0.000000
 40
0.000000
 40
0.000000
 40
0.000000
 40
1.000000
 40
1.000000
 40
1.000000
 40
1.000000
 10
48.542927
 20
112.600594
 30
0.000000
 10
48.213892
 20
112.411104
 30
0.000000
 10
47.936311
 20
112.133523
 30
0.000000
 10
47.746822
 20
111.804489
 30
0.000000
  0
SPLINE
  5
114
330
1F
100
AcDbEntity
  8
0
 62
     4
100
AcDbSpline
210
0.000000
220
0.000000
230
1.0
 70
     8
 71
     3
 72
     8
 73
     4
 42
0.0000000001
 43
0.0000000001
 44
0.0000000001
 12
0.000000
 22
0.000000
 32
0.000000
 13
0.000000
 23
0.000000
 33
0.000000
 40
0.000000
 40
0.000000
 40
0.000000
 40
0.000000
 40
1.000000
 40
1.000000
 40
1.000000
 40
1.000000
 10
47.746822
 20
111.804489
 30
0.000000
 10
47.556614
 20
111.475869
 30
0.000000
 10
47.455012
 20
111.096686
 30
0.000000
 10
47.455427
 20
110.716989
 30
0.000000
  0
SPLINE
  5
115
330
1F
100
AcDbEntity
  8
0
 62
     4
100
AcDbSpline
210
0.000000
220
0.000000
230
1.0
 70
     8
 71
     3
 72
     8
 73
     4
 42
0.0000000001
 43
0.0000000001
 44
0.0000000001
 12
0.000000
 22
0.000000
 32
0.000000
 13
0.000000
 23
0.000000
 33
0.000000
 40
0.000000
 40
0.000000
 40
0.000000
 40
0.000000
 40
1.000000
 40
1.000000
 40
1.000000
 40
1.000000
 10
47.455427
 20
110.716989
 30
0.000000
 10
47.455012
 20
110.337291
 30
0.000000
 10
47.556614
 20
109.958109
 30
0.000000
 10
47.746822
 20
109.629489
 30
0.000000
  0
SPLINE
  5
116
330
1F
100
AcDbEntity
  8
0
 62
     4
100
AcDbSpline
210
0.000000
220
0.000000
230
1.0
 70
     8
 71
     3
 72
     8
 73
     4
 42
0.0000000001
 43
0.0000000001
 44
0.0000000001
 12
0.000000
 22
0.000000
 32
0.000000
 13
0.000000
 23
0.000000
 33
0.000000
 40
0.000000
 40
0.000000
 40
0.000000
 40
0.000000
 40
1.000000
 40
1.000000
 40
1.000000
 40
1.000000
 10
47.746822
 20
109.629489
 30
0.000000
 10
47.936311
 20
109.300454
 30
0.000000
 10
48.213892
 20
109.022873
 30
0.000000
 10
48.542927
 20
108.833383
 30
0.000000
  0
SPLINE
  5
117
330
1F
100
AcDbEntity
  8
0
 62
     4
100
AcDbSpline
210
0.000000
220
0.000000
230
1.0
 70
     8
 71
     3
 72
     8
 73
     4
 42
0.0000000001
 43
0.0000000001
 44
0.0000000001
 12
0.000000
 22
0.000000
 32
0.000000
 13
0.000000
 23
0.000000
 33
0.000000
 40
0.000000
 40
0.000000
 40
0.000000
 40
0.000000
 40
1.000000
 40
1.000000
 40
1.000000
 40
1.000000
 10
48.542927
 20
108.833383
 30
0.000000
 10
48.871547
 20
108.643175
 30
0.000000
 10
49.250730
 20
108.541574
 30
0.000000
 10
49.630427
 20
108.541989
 30
0.000000
  0
SPLINE
  5
118
330
1F
100
AcDbEntity
  8
0
 62
     4
100
AcDbSpline
210
0.000000
220
0.000000
230
1.0
 70
     8
 71
     3
 72
     8
 73
     4
 42
0.0000000001
 43
0.0000000001
 44
0.0000000001
 12
0.000000
 22
0.000000
 32
0.000000
 13
0.000000
 23
0.000000
 33
0.000000
 40
0.000000
 40
0.000000
 40
0.000000
 40
0.000000
 40
1.000000
 40
1.000000
 40
1.000000
 40
1.000000
 10
49.630427
 20
108.541989
 30
0.000000
 10
50.010125
 20
108.541574
 30
0.000000
 10
50.389307
 20
108.643175
 30
0.000000
 10
50.717927
 20
108.833383
 30
0.000000
  0
SPLINE
  5
119
330
1F
100
AcDbEntity
  8
0
 62
     4
100
AcDbSpline
210
0.000000
220
0.000000
230
1.0
 70
     8
 71
     3
 72
     8
 73
     4
 42
0.0000000001
 43
0.0000000001
 44
0.0000000001
 12
0.000000
 22
0.000000
 32
0.000000
 13
0.000000
 23
0.000000
 33
0.000000
 40
0.000000
 40
0.000000
 40
0.000000
 40
0.000000
 40
1.000000
 40
1.000000
 40
1.000000
 40
1.000000
 10
50.717927
 20
108.833383
 30
0.000000
 10
51.046962
 20
109.022873
 30
0.000000
 10
51.324543
 20
109.300454
 30
0.000000
 10
51.514032
 20
109.629489
 30
0.000000
  0
SPLINE
  5
120
330
1F
100
AcDbEntity
  8
0
 62
     4
100
AcDbSpline
210
0.000000
220
0.000000
230
1.0
 70
     8
 71
     3
 72
     8
 73
     4
 42
0.0000000001
 43
0.0000000001
 44
0.0000000001
 12
0.000000
 22
0.000000
 32
0.000000
 13
0.000000
 23
0.000000
 33
0.000000
 40
0.000000
 40
0.000000
 40
0.000000
 40
0.000000
 40
1.000000
 40
1.000000
 40
1.000000
 40
1.000000
 10
51.514032
 20
109.629489
 30
0.000000
 10
51.704240
 20
109.958109
 30
0.000000
 10
51.805842
 20
110.337291
 30
0.000000
 10
51.805427
 20
110.716989
 30
0.000000
  0
SPLINE
  5
121
330
1F
100
AcDbEntity
  8
0
 62
     4
100
AcDbSpline
210
0.000000
220
0.000000
230
1.0
 70
     8
 71
     3
 72
     8
 73
     4
 42
0.0000000001
 43
0.0000000001
 44
0.0000000001
 12
0.000000
 22
0.000000
 32
0.000000
 13
0.000000
 23
0.000000
 33
0.000000
 40
0.000000
 40
0.000000
 40
0.000000
 40
0.000000
 40
1.000000
 40
1.000000
 40
1.000000
 40
1.000000
 10
51.805427
 20
110.716989
 30
0.000000
 10
51.805842
 20
111.096686
 30
0.000000
 10
51.704240
 20
111.475869
 30
0.000000
 10
51.514032
 20
111.804489
 30
0.000000
  0
SPLINE
  5
122
330
1F
100
AcDbEntity
  8
0
 62
     4
100
AcDbSpline
210
0.000000
220
0.000000
230
1.0
 70
     8
 71
     3
 72
     8
 73
     4
 42
0.0000000001
 43
0.0000000001
 44
0.0000000001
 12
0.000000
 22
0.000000
 32
0.000000
 13
0.000000
 23
0.000000
 33
0.000000
 40
0.000000
 40
0.000000
 40
0.000000
 40
0.000000
 40
1.000000
 40
1.000000
 40
1.000000
 40
1.000000
 10
51.514032
 20
111.804489
 30
0.000000
 10
51.324543
 20
112.133523
 30
0.000000
 10
51.046962
 20
112.411104
 30
0.000000
 10
50.717927
 20
112.600594
 30
0.000000
  0
SPLINE
  5
123
330
1F
100
AcDbEntity
  8
0
 62
     4
100
AcDbSpline
210
0.000000
220
0.000000
230
1.0
 70
     8
 71
     3
 72
     8
 73
     4
 42
0.0000000001
 43
0.0000000001
 44
0.0000000001
 12
0.000000
 22
0.000000
 32
0.000000
 13
0.000000
 23
0.000000
 33
0.000000
 40
0.000000
 40
0.000000
 40
0.000000
 40
0.000000
 40
1.000000
 40
1.000000
 40
1.000000
 40
1.000000
 10
50.717927
 20
112.600594
 30
0.000000
 10
50.389307
 20
112.790802
 30
0.000000
 10
50.010125
 20
112.892403
 30
0.000000
 10
49.630427
 20
112.891989
 30
0.000000
  0
SPLINE
  5
124
330
1F
100
AcDbEntity
  8
0
 62
     4
100
AcDbSpline
210
0.000000
220
0.000000
230
1.0
 70
     8
 71
     3
 72
     8
 73
     4
 42
0.0000000001
 43
0.0000000001
 44
0.0000000001
 12
0.000000
 22
0.000000
 32
0.000000
 13
0.000000
 23
0.000000
 33
0.000000
 40
0.000000
 40
0.000000
 40
0.000000
 40
0.000000
 40
1.000000
 40
1.000000
 40
1.000000
 40
1.000000
 10
86.129639
 20
110.241659
 30
0.000000
 10
85.863442
 20
110.241950
 30
0.000000
 10
85.597606
 20
110.170719
 30
0.000000
 10
85.367218
 20
110.037369
 30
0.000000
  0
SPLINE
  5
125
330
1F
100
AcDbEntity
  8
0
 62
     4
100
AcDbSpline
210
0.000000
220
0.000000
230
1.0
 70
     8
 71
     3
 72
     8
 73
     4
 42
0.0000000001
 43
0.0000000001
 44
0.0000000001
 12
0.000000
 22
0.000000
 32
0.000000
 13
0.000000
 23
0.000000
 33
0.000000
 40
0.000000
 40
0.000000
 40
0.000000
 40
0.000000
 40
1.000000
 40
1.000000
 40
1.000000
 40
1.000000
 10
85.367218
 20
110.037369
 30
0.000000
 10
85.136539
 20
109.904522
 30
0.000000
 10
84.941933
 20
109.709916
 30
0.000000
 10
84.809087
 20
109.479237
 30
0.000000
  0
SPLINE
  5
126
330
1F
100
AcDbEntity
  8
0
 62
     4
100
AcDbSpline
210
0.000000
220
0.000000
230
1.0
 70
     8
 71
     3
 72
     8
 73
     4
 42
0.0000000001
 43
0.0000000001
 44
0.0000000001
 12
0.000000
 22
0.000000
 32
0.000000
 13
0.000000
 23
0.000000
 33
0.000000
 40
0.000000
 40
0.000000
 40
0.000000
 40
0.000000
 40
1.000000
 40
1.000000
 40
1.000000
 40
1.000000
 10
84.809087
 20
109.479237
 30
0.000000
 10
84.675736
 20
109.248849
 30
0.000000
 10
84.604506
 20
108.983013
 30
0.000000
 10
84.604796
 20
108.716816
 30
0.000000
  0
SPLINE
  5
127
330
1F
100
AcDbEntity
  8
0
 62
     4
100
AcDbSpline
210
0.000000
220
0.000000
230
1.0
 70
     8
 71
     3
 72
     8
 73
     4
 42
0.0000000001
 43
0.0000000001
 44
0.0000000001
 12
0.000000
 22
0.000000
 32
0.000000
 13
0.000000
 23
0.000000
 33
0.000000
 40
0.000000
 40
0.000000
 40
0.000000
 40
0.000000
 40
1.000000
 40
1.000000
 40
1.000000
 40
1.000000
 10
84.604796
 20
108.716816
 30
0.000000
 10
84.604506
 20
108.450619
 30
0.000000
 10
84.675736
 20
108.184783
 30
0.000000
 10
84.809087
 20
107.954394
 30
0.000000
  0
SPLINE
  5
128
330
1F
100
AcDbEntity
  8
0
 62
     4
100
AcDbSpline
210
0.000000
220
0.000000
230
1.0
 70
     8
 71
     3
 72
     8
 73
     4
 42
0.0000000001
 43
0.0000000001
 44
0.0000000001
 12
0.000000
 22
0.000000
 32
0.000000
 13
0.000000
 23
0.000000
 33
0.000000
 40
0.000000
 40
0.000000
 40
0.000000
 40
0.000000
 40
1.000000
 40
1.000000
 40
1.000000
 40
1.000000
 10
84.809087
 20
107.954394
 30
0.000000
 10
84.941933
 20
107.723716
 30
0.000000
 10
85.136539
 20
107.529110
 30
0.000000
 10
85.367218
 20
107.396263
 30
0.000000
  0
SPLINE
  5
129
330
1F
100
AcDbEntity
  8
0
 62
     4
100
AcDbSpline
210
0.000000
220
0.000000
230
1.0
 70
     8
 71
     3
 72
     8
 73
     4
 42
0.0000000001
 43
0.0000000001
 44
0.0000000001
 12
0.000000
 22
0.000000
 32
0.000000
 13
0.000000
 23
0.000000
 33
0.000000
 40
0.000000
 40
0.000000
 40
0.000000
 40
0.000000
 40
1.000000
 40
1.000000
 40
1.000000
 40
1.000000
 10
85.367218
 20
107.396263
 30
0.000000
 10
85.597606
 20
107.262913
 30
0.000000
 10
85.863442
 20
107.191682
 30
0.000000
 10
86.129639
 20
107.191973
 30
0.000000
  0
SPLINE
  5
130
330
1F
100
AcDbEntity
  8
0
 62
     4
100
AcDbSpline
210
0.000000
220
0.000000
230
1.0
 70
     8
 71
     3
 72
     8
 73
     4
 42
0.0000000001
 43
0.0000000001
 44
0.0000000001
 12
0.000000
 22
0.000000
 32
0.000000
 13
0.000000
 23
0.000000
 33
0.000000
 40
0.000000
 40
0.000000
 40
0.000000
 40
0.000000
 40
1.000000
 40
1.000000
 40
1.000000
 40
1.000000
 10
86.129639
 20
107.191973
 30
0.000000
 10
86.395836
 20
107.191682
 30
0.000000
 10
86.661673
 20
107.262913
 30
0.000000
 10
86.892061
 20
107.396263
 30
0.000000
  0
SPLINE
  5
131
330
1F
100
AcDbEntity
  8
0
 62
     4
100
AcDbSpline
210
0.000000
220
0.000000
230
1.0
 70
     8
 71
     3
 72
     8
 73
     4
 42
0.0000000001
 43
0.0000000001
 44
0.0000000001
 12
0.000000
 22
0.000000
 32
0.000000
 13
0.000000
 23
0.000000
 33
0.000000
 40
0.000000
 40
0.000000
 40
0.000000
 40
0.000000
 40
1.000000
 40
1.000000
 40
1.000000
 40
1.000000
 10
86.892061
 20
107.396263
 30
0.000000
 10
87.122740
 20
107.529110
 30
0.000000
 10
87.317345
 20
107.723716
 30
0.000000
 10
87.450192
 20
107.954394
 30
0.000000
  0
SPLINE
  5
132
330
1F
100
AcDbEntity
  8
0
 62
     4
100
AcDbSpline
210
0.000000
220
0.000000
230
1.0
 70
     8
 71
     3
 72
     8
 73
     4
 42
0.0000000001
 43
0.0000000001
 44
0.0000000001
 12
0.000000
 22
0.000000
 32
0.000000
 13
0.000000
 23
0.000000
 33
0.000000
 40
0.000000
 40
0.000000
 40
0.000000
 40
0.000000
 40
1.000000
 40
1.000000
 40
1.000000
 40
1.000000
 10
87.450192
 20
107.954394
 30
0.000000
 10
87.583543
 20
108.184783
 30
0.000000
 10
87.654773
 20
108.450619
 30
0.000000
 10
87.654482
 20
108.716816
 30
0.000000
  0
SPLINE
  5
133
330
1F
100
AcDbEntity
  8
0
 62
     4
100
AcDbSpline
210
0.000000
220
0.000000
230
1.0
 70
     8
 71
     3
 72
     8
 73
     4
 42
0.0000000001
 43
0.0000000001
 44
0.0000000001
 12
0.000000
 22
0.000000
 32
0.000000
 13
0.000000
 23
0.000000
 33
0.000000
 40
0.000000
 40
0.000000
 40
0.000000
 40
0.000000
 40
1.000000
 40
1.000000
 40
1.000000
 40
1.000000
 10
87.654482
 20
108.716816
 30
0.000000
 10
87.654773
 20
108.983013
 30
0.000000
 10
87.583543
 20
109.248849
 30
0.000000
 10
87.450192
 20
109.479237
 30
0.000000
  0
SPLINE
  5
134
330
1F
100
AcDbEntity
  8
0
 62
     4
100
AcDbSpline
210
0.000000
220
0.000000
230
1.0
 70
     8
 71
     3
 72
     8
 73
     4
 42
0.0000000001
 43
0.0000000001
 44
0.0000000001
 12
0.000000
 22
0.000000
 32
0.000000
 13
0.000000
 23
0.000000
 33
0.000000
 40
0.000000
 40
0.000000
 40
0.000000
 40
0.000000
 40
1.000000
 40
1.000000
 40
1.000000
 40
1.000000
 10
87.450192
 20
109.479237
 30
0.000000
 10
87.317345
 20
109.709916
 30
0.000000
 10
87.122740
 20
109.904522
 30
0.000000
 10
86.892061
 20
110.037369
 30
0.000000
  0
SPLINE
  5
135
330
1F
100
AcDbEntity
  8
0
 62
     4
100
AcDbSpline
210
0.000000
220
0.000000
230
1.0
 70
     8
 71
     3
 72
     8
 73
     4
 42
0.0000000001
 43
0.0000000001
 44
0.0000000001
 12
0.000000
 22
0.000000
 32
0.000000
 13
0.000000
 23
0.000000
 33
0.000000
 40
0.000000
 40
0.000000
 40
0.000000
 40
0.000000
 40
1.000000
 40
1.000000
 40
1.000000
 40
1.000000
 10
86.892061
 20
110.037369
 30
0.000000
 10
86.661673
 20
110.170719
 30
0.000000
 10
86.395836
 20
110.241950
 30
0.000000
 10
86.129639
 20
110.241659
 30
0.000000
  0
SPLINE
  5
136
330
1F
100
AcDbEntity
  8
0
 62
     4
100
AcDbSpline
210
0.000000
220
0.000000
230
1.0
 70
     8
 71
     3
 72
     8
 73
     4
 42
0.0000000001
 43
0.0000000001
 44
0.0000000001
 12
0.000000
 22
0.000000
 32
0.000000
 13
0.000000
 23
0.000000
 33
0.000000
 40
0.000000
 40
0.000000
 40
0.000000
 40
0.000000
 40
1.000000
 40
1.000000
 40
1.000000
 40
1.000000
 10
127.129825
 20
55.241855
 30
0.000000
 10
126.863596
 20
55.242146
 30
0.000000
 10
126.597728
 20
55.170907
 30
0.000000
 10
126.367312
 20
55.037540
 30
0.000000
  0
SPLINE
  5
137
330
1F
100
AcDbEntity
  8
0
 62
     4
100
AcDbSpline
210
0.000000
220
0.000000
230
1.0
 70
     8
 71
     3
 72
     8
 73
     4
 42
0.0000000001
 43
0.0000000001
 44
0.0000000001
 12
0.000000
 22
0.000000
 32
0.000000
 13
0.000000
 23
0.000000
 33
0.000000
 40
0.000000
 40
0.000000
 40
0.000000
 40
0.000000
 40
1.000000
 40
1.000000
 40
1.000000
 40
1.000000
 10
126.367312
 20
55.037540
 30
0.000000
 10
126.136606
 20
54.904678
 30
0.000000
 10
125.941977
 20
54.710049
 30
0.000000
 10
125.809114
 20
54.479342
 30
0.000000
  0
SPLINE
  5
138
330
1F
100
AcDbEntity
  8
0
 62
     4
100
AcDbSpline
210
0.000000
220
0.000000
230
1.0
 70
     8
 71
     3
 72
     8
 73
     4
 42
0.0000000001
 43
0.0000000001
 44
0.0000000001
 12
0.000000
 22
0.000000
 32
0.000000
 13
0.000000
 23
0.000000
 33
0.000000
 40
0.000000
 40
0.000000
 40
0.000000
 40
0.000000
 40
1.000000
 40
1.000000
 40
1.000000
 40
1.000000
 10
125.809114
 20
54.479342
 30
0.000000
 10
125.675747
 20
54.248926
 30
0.000000
 10
125.604508
 20
53.983058
 30
0.000000
 10
125.604799
 20
53.716829
 30
0.000000
  0
SPLINE
  5
139
330
1F
100
AcDbEntity
  8
0
 62
     4
100
AcDbSpline
210
0.000000
220
0.000000
230
1.0
 70
     8
 71
     3
 72
     8
 73
     4
 42
0.0000000001
 43
0.0000000001
 44
0.0000000001
 12
0.000000
 22
0.000000
 32
0.000000
 13
0.000000
 23
0.000000
 33
0.000000
 40
0.000000
 40
0.000000
 40
0.000000
 40
0.000000
 40
1.000000
 40
1.000000
 40
1.000000
 40
1.000000
 10
125.604799
 20
53.716829
 30
0.000000
 10
125.604508
 20
53.450600
 30
0.000000
 10
125.675747
 20
53.184732
 30
0.000000
 10
125.809114
 20
52.954316
 30
0.000000
  0
SPLINE
  5
140
330
1F
100
AcDbEntity
  8
0
 62
     4
100
AcDbSpline
210
0.000000
220
0.000000
230
1.0
 70
     8
 71
     3
 72
     8
 73
     4
 42
0.0000000001
 43
0.0000000001
 44
0.0000000001
 12
0.000000
 22
0.000000
 32
0.000000
 13
0.000000
 23
0.000000
 33
0.000000
 40
0.000000
 40
0.000000
 40
0.000000
 40
0.000000
 40
1.000000
 40
1.000000
 40
1.000000
 40
1.000000
 10
125.809114
 20
52.954316
 30
0.000000
 10
125.941977
 20
52.723609
 30
0.000000
 10
126.136606
 20
52.528980
 30
0.000000
 10
126.367312
 20
52.396118
 30
0.000000
  0
SPLINE
  5
141
330
1F
100
AcDbEntity
  8
0
 62
     4
100
AcDbSpline
210
0.000000
220
0.000000
230
1.0
 70
     8
 71
     3
 72
     8
 73
     4
 42
0.0000000001
 43
0.0000000001
 44
0.0000000001
 12
0.000000
 22
0.000000
 32
0.000000
 13
0.000000
 23
0.000000
 33
0.000000
 40
0.000000
 40
0.000000
 40
0.000000
 40
0.000000
 40
1.000000
 40
1.000000
 40
1.000000
 40
1.000000
 10
126.367312
 20
52.396118
 30
0.000000
 10
126.597728
 20
52.262751
 30
0.000000
 10
126.863596
 20
52.191512
 30
0.000000
 10
127.129825
 20
52.191803
 30
0.000000
  0
SPLINE
  5
142
330
1F
100
AcDbEntity
  8
0
 62
     4
100
AcDbSpline
210
0.000000
220
0.000000
230
1.0
 70
     8
 71
     3
 72
     8
 73
     4
 42
0.0000000001
 43
0.0000000001
 44
0.0000000001
 12
0.000000
 22
0.000000
 32
0.000000
 13
0.000000
 23
0.000000
 33
0.000000
 40
0.000000
 40
0.000000
 40
0.000000
 40
0.000000
 40
1.000000
 40
1.000000
 40
1.000000
 40
1.000000
 10
127.129825
 20
52.191803
 30
0.000000
 10
127.396054
 20
52.191512
 30
0.000000
 10
127.661922
 20
52.262751
 30
0.000000
 10
127.892338
 20
52.396118
 30
0.000000
  0
SPLINE
  5
143
330
1F
100
AcDbEntity
  8
0
 62
     4
100
AcDbSpline
210
0.000000
220
0.000000
230
1.0
 70
     8
 71
     3
 72
     8
 73
     4
 42
0.0000000001
 43
0.0000000001
 44
0.0000000001
 12
0.000000
 22
0.000000
 32
0.000000
 13
0.000000
 23
0.000000
 33
0.000000
 40
0.000000
 40
0.000000
 40
0.000000
 40
0.000000
 40
1.000000
 40
1.000000
 40
1.000000
 40
1.000000
 10
127.892338
 20
52.396118
 30
0.000000
 10
128.123045
 20
52.528980
 30
0.000000
 10
128.317674
 20
52.723609
 30
0.000000
 10
128.450536
 20
52.954316
 30
0.000000
  0
SPLINE
  5
144
330
1F
100
AcDbEntity
  8
0
 62
     4
100
AcDbSpline
210
0.000000
220
0.000000
230
1.0
 70
     8
 71
     3
 72
     8
 73
     4
 42
0.0000000001
 43
0.0000000001
 44
0.0000000001
 12
0.000000
 22
0.000000
 32
0.000000
 13
0.000000
 23
0.000000
 33
0.000000
 40
0.000000
 40
0.000000
 40
0.000000
 40
0.000000
 40
1.000000
 40
1.000000
 40
1.000000
 40
1.000000
 10
128.450536
 20
52.954316
 30
0.000000
 10
128.583903
 20
53.184732
 30
0.000000
 10
128.655142
 20
53.450600
 30
0.000000
 10
128.654851
 20
53.716829
 30
0.000000
  0
SPLINE
  5
145
330
1F
100
AcDbEntity
  8
0
 62
     4
100
AcDbSpline
210
0.000000
220
0.000000
230
1.0
 70
     8
 71
     3
 72
     8
 73
     4
 42
0.0000000001
 43
0.0000000001
 44
0.0000000001
 12
0.000000
 22
0.000000
 32
0.000000
 13
0.000000
 23
0.000000
 33
0.000000
 40
0.000000
 40
0.000000
 40
0.000000
 40
0.000000
 40
1.000000
 40
1.000000
 40
1.000000
 40
1.000000
 10
128.654851
 20
53.716829
 30
0.000000
 10
128.655142
 20
53.983058
 30
0.000000
 10
128.583903
 20
54.248926
 30
0.000000
 10
128.450536
 20
54.479342
 30
0.000000
  0
SPLINE
  5
146
330
1F
100
AcDbEntity
  8
0
 62
     4
100
AcDbSpline
210
0.000000
220
0.000000
230
1.0
 70
     8
 71
     3
 72
     8
 73
     4
 42
0.0000000001
 43
0.0000000001
 44
0.0000000001
 12
0.000000
 22
0.000000
 32
0.000000
 13
0.000000
 23
0.000000
 33
0.000000
 40
0.000000
 40
0.000000
 40
0.000000
 40
0.000000
 40
1.000000
 40
1.000000
 40
1.000000
 40
1.000000
 10
128.450536
 20
54.479342
 30
0.000000
 10
128.317674
 20
54.710049
 30
0.000000
 10
128.123045
 20
54.904678
 30
0.000000
 10
127.892338
 20
55.037540
 30
0.000000
  0
SPLINE
  5
147
330
1F
100
AcDbEntity
  8
0
 62
     4
100
AcDbSpline
210
0.000000
220
0.000000
230
1.0
 70
     8
 71
     3
 72
     8
 73
     4
 42
0.0000000001
 43
0.0000000001
 44
0.0000000001
 12
0.000000
 22
0.000000
 32
0.000000
 13
0.000000
 23
0.000000
 33
0.000000
 40
0.000000
 40
0.000000
 40
0.000000
 40
0.000000
 40
1.000000
 40
1.000000
 40
1.000000
 40
1.000000
 10
127.892338
 20
55.037540
 30
0.000000
 10
127.661922
 20
55.170907
 30
0.000000
 10
127.396054
 20
55.242146
 30
0.000000
 10
127.129825
 20
55.241855
 30
0.000000
  0
SPLINE
  5
148
330
1F
100
AcDbEntity
  8
0
 62
     4
100
AcDbSpline
210
0.000000
220
0.000000
230
1.0
 70
     8
 71
     3
 72
     8
 73
     4
 42
0.0000000001
 43
0.0000000001
 44
0.0000000001
 12
0.000000
 22
0.000000
 32
0.000000
 13
0.000000
 23
0.000000
 33
0.000000
 40
0.000000
 40
0.000000
 40
0.000000
 40
0.000000
 40
1.000000
 40
1.000000
 40
1.000000
 40
1.000000
 10
67.129735
 20
55.241855
 30
0.000000
 10
66.863506
 20
55.242146
 30
0.000000
 10
66.597637
 20
55.170907
 30
0.000000
 10
66.367222
 20
55.037540
 30
0.000000
  0
SPLINE
  5
149
330
1F
100
AcDbEntity
  8
0
 62
     4
100
AcDbSpline
210
0.000000
220
0.000000
230
1.0
 70
     8
 71
     3
 72
     8
 73
     4
 42
0.0000000001
 43
0.0000000001
 44
0.0000000001
 12
0.000000
 22
0.000000
 32
0.000000
 13
0.000000
 23
0.000000
 33
0.000000
 40
0.000000
 40
0.000000
 40
0.000000
 40
0.000000
 40
1.000000
 40
1.000000
 40
1.000000
 40
1.000000
 10
66.367222
 20
55.037540
 30
0.000000
 10
66.136515
 20
54.904678
 30
0.000000
 10
65.941886
 20
54.710049
 30
0.000000
 10
65.809023
 20
54.479342
 30
0.000000
  0
SPLINE
  5
150
330
1F
100
AcDbEntity
  8
0
 62
     4
100
AcDbSpline
210
0.000000
220
0.000000
230
1.0
 70
     8
 71
     3
 72
     8
 73
     4
 42
0.0000000001
 43
0.0000000001
 44
0.0000000001
 12
0.000000
 22
0.000000
 32
0.000000
 13
0.000000
 23
0.000000
 33
0.000000
 40
0.000000
 40
0.000000
 40
0.000000
 40
0.000000
 40
1.000000
 40
1.000000
 40
1.000000
 40
1.000000
 10
65.809023
 20
54.479342
 30
0.000000
 10
65.675657
 20
54.248926
 30
0.000000
 10
65.604418
 20
53.983058
 30
0.000000
 10
65.604709
 20
53.716829
 30
0.000000
  0
SPLINE
  5
151
330
1F
100
AcDbEntity
  8
0
 62
     4
100
AcDbSpline
210
0.000000
220
0.000000
230
1.0
 70
     8
 71
     3
 72
     8
 73
     4
 42
0.0000000001
 43
0.0000000001
 44
0.0000000001
 12
0.000000
 22
0.000000
 32
0.000000
 13
0.000000
 23
0.000000
 33
0.000000
 40
0.000000
 40
0.000000
 40
0.000000
 40
0.000000
 40
1.000000
 40
1.000000
 40
1.000000
 40
1.000000
 10
65.604709
 20
53.716829
 30
0.000000
 10
65.604418
 20
53.450600
 30
0.000000
 10
65.675657
 20
53.184732
 30
0.000000
 10
65.809023
 20
52.954316
 30
0.000000
  0
SPLINE
  5
152
330
1F
100
AcDbEntity
  8
0
 62
     4
100
AcDbSpline
210
0.000000
220
0.000000
230
1.0
 70
     8
 71
     3
 72
     8
 73
     4
 42
0.0000000001
 43
0.0000000001
 44
0.0000000001
 12
0.000000
 22
0.000000
 32
0.000000
 13
0.000000
 23
0.000000
 33
0.000000
 40
0.000000
 40
0.000000
 40
0.000000
 40
0.000000
 40
1.000000
 40
1.000000
 40
1.000000
 40
1.000000
 10
65.809023
 20
52.954316
 30
0.000000
 10
65.941886
 20
52.723609
 30
0.000000
 10
66.136515
 20
52.528980
 30
0.000000
 10
66.367222
 20
52.396118
 30
0.000000
  0
SPLINE
  5
153
330
1F
100
AcDbEntity
  8
0
 62
     4
100
AcDbSpline
210
0.000000
220
0.000000
230
1.0
 70
     8
 71
     3
 72
     8
 73
     4
 42
0.0000000001
 43
0.0000000001
 44
0.0000000001
 12
0.000000
 22
0.000000
 32
0.000000
 13
0.000000
 23
0.000000
 33
0.000000
 40
0.000000
 40
0.000000
 40
0.000000
 40
0.000000
 40
1.000000
 40
1.000000
 40
1.000000
 40
1.000000
 10
66.367222
 20
52.396118
 30
0.000000
 10
66.597637
 20
52.262751
 30
0.000000
 10
66.863506
 20
52.191512
 30
0.000000
 10
67.129735
 20
52.191803
 30
0.000000
  0
SPLINE
  5
154
330
1F
100
AcDbEntity
  8
0
 62
     4
100
AcDbSpline
210
0.000000
220
0.000000
230
1.0
 70
     8
 71
     3
 72
     8
 73
     4
 42
0.0000000001
 43
0.0000000001
 44
0.0000000001
 12
0.000000
 22
0.000000
 32
0.000000
 13
0.000000
 23
0.000000
 33
0.000000
 40
0.000000
 40
0.000000
 40
0.000000
 40
0.000000
 40
1.000000
 40
1.000000
 40
1.000000
 40
1.000000
 10
67.129735
 20
52.191803
 30
0.000000
 10
67.395964
 20
52.191512
 30
0.000000
 10
67.661832
 20
52.262751
 30
0.000000
 10
67.892248
 20
52.396118
 30
0.000000
  0
SPLINE
  5
155
330
1F
100
AcDbEntity
  8
0
 62
     4
100
AcDbSpline
210
0.000000
220
0.000000
230
1.0
 70
     8
 71
     3
 72
     8
 73
     4
 42
0.0000000001
 43
0.0000000001
 44
0.0000000001
 12
0.000000
 22
0.000000
 32
0.000000
 13
0.000000
 23
0.000000
 33
0.000000
 40
0.000000
 40
0.000000
 40
0.000000
 40
0.000000
 40
1.000000
 40
1.000000
 40
1.000000
 40
1.000000
 10
67.892248
 20
52.396118
 30
0.000000
 10
68.122954
 20
52.528980
 30
0.000000
 10
68.317583
 20
52.723609
 30
0.000000
 10
68.450446
 20
52.954316
 30
0.000000
  0
SPLINE
  5
156
330
1F
100
AcDbEntity
  8
0
 62
     4
100
AcDbSpline
210
0.000000
220
0.000000
230
1.0
 70
     8
 71
     3
 72
     8
 73
     4
 42
0.0000000001
 43
0.0000000001
 44
0.0000000001
 12
0.000000
 22
0.000000
 32
0.000000
 13
0.000000
 23
0.000000
 33
0.000000
 40
0.000000
 40
0.000000
 40
0.000000
 40
0.000000
 40
1.000000
 40
1.000000
 40
1.000000
 40
1.000000
 10
68.450446
 20
52.954316
 30
0.000000
 10
68.583812
 20
53.184732
 30
0.000000
 10
68.655052
 20
53.450600
 30
0.000000
 10
68.654761
 20
53.716829
 30
0.000000
  0
SPLINE
  5
157
330
1F
100
AcDbEntity
  8
0
 62
     4
100
AcDbSpline
210
0.000000
220
0.000000
230
1.0
 70
     8
 71
     3
 72
     8
 73
     4
 42
0.0000000001
 43
0.0000000001
 44
0.0000000001
 12
0.000000
 22
0.000000
 32
0.000000
 13
0.000000
 23
0.000000
 33
0.000000
 40
0.000000
 40
0.000000
 40
0.000000
 40
0.000000
 40
1.000000
 40
1.000000
 40
1.000000
 40
1.000000
 10
68.654761
 20
53.716829
 30
0.000000
 10
68.655052
 20
53.983058
 30
0.000000
 10
68.583812
 20
54.248926
 30
0.000000
 10
68.450446
 20
54.479342
 30
0.000000
  0
SPLINE
  5
158
330
1F
100
AcDbEntity
  8
0
 62
     4
100
AcDbSpline
210
0.000000
220
0.000000
230
1.0
 70
     8
 71
     3
 72
     8
 73
     4
 42
0.0000000001
 43
0.0000000001
 44
0.0000000001
 12
0.000000
 22
0.000000
 32
0.000000
 13
0.000000
 23
0.000000
 33
0.000000
 40
0.000000
 40
0.000000
 40
0.000000
 40
0.000000
 40
1.000000
 40
1.000000
 40
1.000000
 40
1.000000
 10
68.450446
 20
54.479342
 30
0.000000
 10
68.317583
 20
54.710049
 30
0.000000
 10
68.122954
 20
54.904678
 30
0.000000
 10
67.892248
 20
55.037540
 30
0.000000
  0
SPLINE
  5
159
330
1F
100
AcDbEntity
  8
0
 62
     4
100
AcDbSpline
210
0.000000
220
0.000000
230
1.0
 70
     8
 71
     3
 72
     8
 73
     4
 42
0.0000000001
 43
0.0000000001
 44
0.0000000001
 12
0.000000
 22
0.000000
 32
0.000000
 13
0.000000
 23
0.000000
 33
0.000000
 40
0.000000
 40
0.000000
 40
0.000000
 40
0.000000
 40
1.000000
 40
1.000000
 40
1.000000
 40
1.000000
 10
67.892248
 20
55.037540
 30
0.000000
 10
67.661832
 20
55.170907
 30
0.000000
 10
67.395964
 20
55.242146
 30
0.000000
 10
67.129735
 20
55.241855
 30
0.000000
  0
SPLINE
  5
160
330
1F
100
AcDbEntity
  8
0
 62
     4
100
AcDbSpline
210
0.000000
220
0.000000
230
1.0
 70
     8
 71
     3
 72
     8
 73
     4
 42
0.0000000001
 43
0.0000000001
 44
0.0000000001
 12
0.000000
 22
0.000000
 32
0.000000
 13
0.000000
 23
0.000000
 33
0.000000
 40
0.000000
 40
0.000000
 40
0.000000
 40
0.000000
 40
1.000000
 40
1.000000
 40
1.000000
 40
1.000000
 10
89.629761
 20
36.142655
 30
0.000000
 10
88.857273
 20
36.143499
 30
0.000000
 10
88.085833
 20
35.936792
 30
0.000000
 10
87.417261
 20
35.549818
 30
0.000000
  0
SPLINE
  5
161
330
1F
100
AcDbEntity
  8
0
 62
     4
100
AcDbSpline
210
0.000000
220
0.000000
230
1.0
 70
     8
 71
     3
 72
     8
 73
     4
 42
0.0000000001
 43
0.0000000001
 44
0.0000000001
 12
0.000000
 22
0.000000
 32
0.000000
 13
0.000000
 23
0.000000
 33
0.000000
 40
0.000000
 40
0.000000
 40
0.000000
 40
0.000000
 40
1.000000
 40
1.000000
 40
1.000000
 40
1.000000
 10
87.417261
 20
35.549818
 30
0.000000
 10
86.747845
 20
35.164305
 30
0.000000
 10
86.183111
 20
34.599571
 30
0.000000
 10
85.797598
 20
33.930155
 30
0.000000
  0
SPLINE
  5
162
330
1F
100
AcDbEntity
  8
0
 62
     4
100
AcDbSpline
210
0.000000
220
0.000000
230
1.0
 70
     8
 71
     3
 72
     8
 73
     4
 42
0.0000000001
 43
0.0000000001
 44
0.0000000001
 12
0.000000
 22
0.000000
 32
0.000000
 13
0.000000
 23
0.000000
 33
0.000000
 40
0.000000
 40
0.000000
 40
0.000000
 40
0.000000
 40
1.000000
 40
1.000000
 40
1.000000
 40
1.000000
 10
85.797598
 20
33.930155
 30
0.000000
 10
85.410624
 20
33.261583
 30
0.000000
 10
85.203917
 20
32.490143
 30
0.000000
 10
85.204761
 20
31.717655
 30
0.000000
  0
SPLINE
  5
163
330
1F
100
AcDbEntity
  8
0
 62
     4
100
AcDbSpline
210
0.000000
220
0.000000
230
1.0
 70
     8
 71
     3
 72
     8
 73
     4
 42
0.0000000001
 43
0.0000000001
 44
0.0000000001
 12
0.000000
 22
0.000000
 32
0.000000
 13
0.000000
 23
0.000000
 33
0.000000
 40
0.000000
 40
0.000000
 40
0.000000
 40
0.000000
 40
1.000000
 40
1.000000
 40
1.000000
 40
1.000000
 10
85.204761
 20
31.717655
 30
0.000000
 10
85.203917
 20
30.945168
 30
0.000000
 10
85.410624
 20
30.173727
 30
0.000000
 10
85.797598
 20
29.505155
 30
0.000000
  0
SPLINE
  5
164
330
1F
100
AcDbEntity
  8
0
 62
     4
100
AcDbSpline
210
0.000000
220
0.000000
230
1.0
 70
     8
 71
     3
 72
     8
 73
     4
 42
0.0000000001
 43
0.0000000001
 44
0.0000000001
 12
0.000000
 22
0.000000
 32
0.000000
 13
0.000000
 23
0.000000
 33
0.000000
 40
0.000000
 40
0.000000
 40
0.000000
 40
0.000000
 40
1.000000
 40
1.000000
 40
1.000000
 40
1.000000
 10
85.797598
 20
29.505155
 30
0.000000
 10
86.183111
 20
28.835739
 30
0.000000
 10
86.747845
 20
28.271006
 30
0.000000
 10
87.417261
 20
27.885493
 30
0.000000
  0
SPLINE
  5
165
330
1F
100
AcDbEntity
  8
0
 62
     4
100
AcDbSpline
210
0.000000
220
0.000000
230
1.0
 70
     8
 71
     3
 72
     8
 73
     4
 42
0.0000000001
 43
0.0000000001
 44
0.0000000001
 12
0.000000
 22
0.000000
 32
0.000000
 13
0.000000
 23
0.000000
 33
0.000000
 40
0.000000
 40
0.000000
 40
0.000000
 40
0.000000
 40
1.000000
 40
1.000000
 40
1.000000
 40
1.000000
 10
87.417261
 20
27.885493
 30
0.000000
 10
88.085833
 20
27.498518
 30
0.000000
 10
88.857273
 20
27.291811
 30
0.000000
 10
89.629761
 20
27.292655
 30
0.000000
  0
SPLINE
  5
166
330
1F
100
AcDbEntity
  8
0
 62
     4
100
AcDbSpline
210
0.000000
220
0.000000
230
1.0
 70
     8
 71
     3
 72
     8
 73
     4
 42
0.0000000001
 43
0.0000000001
 44
0.0000000001
 12
0.000000
 22
0.000000
 32
0.000000
 13
0.000000
 23
0.000000
 33
0.000000
 40
0.000000
 40
0.000000
 40
0.000000
 40
0.000000
 40
1.000000
 40
1.000000
 40
1.000000
 40
1.000000
 10
89.629761
 20
27.292655
 30
0.000000
 10
90.402248
 20
27.291811
 30
0.000000
 10
91.173689
 20
27.498518
 30
0.000000
 10
91.842261
 20
27.885493
 30
0.000000
  0
SPLINE
  5
167
330
1F
100
AcDbEntity
  8
0
 62
     4
100
AcDbSpline
210
0.000000
220
0.000000
230
1.0
 70
     8
 71
     3
 72
     8
 73
     4
 42
0.0000000001
 43
0.0000000001
 44
0.0000000001
 12
0.000000
 22
0.000000
 32
0.000000
 13
0.000000
 23
0.000000
 33
0.000000
 40
0.000000
 40
0.000000
 40
0.000000
 40
0.000000
 40
1.000000
 40
1.000000
 40
1.000000
 40
1.000000
 10
91.842261
 20
27.885493
 30
0.000000
 10
92.511677
 20
28.271006
 30
0.000000
 10
93.076410
 20
28.835739
 30
0.000000
 10
93.461923
 20
29.505155
 30
0.000000
  0
SPLINE
  5
168
330
1F
100
AcDbEntity
  8
0
 62
     4
100
AcDbSpline
210
0.000000
220
0.000000
230
1.0
 70
     8
 71
     3
 72
     8
 73
     4
 42
0.0000000001
 43
0.0000000001
 44
0.0000000001
 12
0.000000
 22
0.000000
 32
0.000000
 13
0.000000
 23
0.000000
 33
0.000000
 40
0.000000
 40
0.000000
 40
0.000000
 40
0.000000
 40
1.000000
 40
1.000000
 40
1.000000
 40
1.000000
 10
93.461923
 20
29.505155
 30
0.000000
 10
93.848898
 20
30.173727
 30
0.000000
 10
94.055605
 20
30.945168
 30
0.000000
 10
94.054761
 20
31.717655
 30
0.000000
  0
SPLINE
  5
169
330
1F
100
AcDbEntity
  8
0
 62
     4
100
AcDbSpline
210
0.000000
220
0.000000
230
1.0
 70
     8
 71
     3
 72
     8
 73
     4
 42
0.0000000001
 43
0.0000000001
 44
0.0000000001
 12
0.000000
 22
0.000000
 32
0.000000
 13
0.000000
 23
0.000000
 33
0.000000
 40
0.000000
 40
0.000000
 40
0.000000
 40
0.000000
 40
1.000000
 40
1.000000
 40
1.000000
 40
1.000000
 10
94.054761
 20
31.717655
 30
0.000000
 10
94.055605
 20
32.490143
 30
0.000000
 10
93.848898
 20
33.261583
 30
0.000000
 10
93.461923
 20
33.930155
 30
0.000000
  0
SPLINE
  5
170
330
1F
100
AcDbEntity
  8
0
 62
     4
100
AcDbSpline
210
0.000000
220
0.000000
230
1.0
 70
     8
 71
     3
 72
     8
 73
     4
 42
0.0000000001
 43
0.0000000001
 44
0.0000000001
 12
0.000000
 22
0.000000
 32
0.000000
 13
0.000000
 23
0.000000
 33
0.000000
 40
0.000000
 40
0.000000
 40
0.000000
 40
0.000000
 40
1.000000
 40
1.000000
 40
1.000000
 40
1.000000
 10
93.461923
 20
33.930155
 30
0.000000
 10
93.076410
 20
34.599571
 30
0.000000
 10
92.511677
 20
35.164305
 30
0.000000
 10
91.842261
 20
35.549818
 30
0.000000
  0
SPLINE
  5
171
330
1F
100
AcDbEntity
  8
0
 62
     4
100
AcDbSpline
210
0.000000
220
0.000000
230
1.0
 70
     8
 71
     3
 72
     8
 73
     4
 42
0.0000000001
 43
0.0000000001
 44
0.0000000001
 12
0.000000
 22
0.000000
 32
0.000000
 13
0.000000
 23
0.000000
 33
0.000000
 40
0.000000
 40
0.000000
 40
0.000000
 40
0.000000
 40
1.000000
 40
1.000000
 40
1.000000
 40
1.000000
 10
91.842261
 20
35.549818
 30
0.000000
 10
91.173689
 20
35.936792
 30
0.000000
 10
90.402248
 20
36.143499
 30
0.000000
 10
89.629761
 20
36.142655
 30
0.000000
  0
LINE
  5
172
330
1F
100
AcDbEntity
  8
0
  62
4
100
AcDbLine
 10
50.983162
 20
83.642322
 30
0.000000
 11
50.983162
 21
84.992322
 31
0.000000
  0
LINE
  5
173
330
1F
100
AcDbEntity
  8
0
  62
4
100
AcDbLine
 10
50.983162
 20
84.992322
 30
0.000000
 11
58.333162
 21
84.992322
 31
0.000000
  0
LINE
  5
174
330
1F
100
AcDbEntity
  8
0
  62
4
100
AcDbLine
 10
58.333162
 20
84.992322
 30
0.000000
 11
58.333162
 21
83.642323
 31
0.000000
  0
LINE
  5
175
330
1F
100
AcDbEntity
  8
0
  62
4
100
AcDbLine
 10
58.333162
 20
83.642323
 30
0.000000
 11
50.983162
 21
83.642322
 31
0.000000
  0
LINE
  5
176
330
1F
100
AcDbEntity
  8
0
  62
4
100
AcDbLine
 10
80.983162
 20
84.992322
 30
0.000000
 11
88.333162
 21
84.992322
 31
0.000000
  0
LINE
  5
177
330
1F
100
AcDbEntity
  8
0
  62
4
100
AcDbLine
 10
88.333162
 20
84.992322
 30
0.000000
 11
88.333162
 21
83.642322
 31
0.000000
  0
LINE
  5
178
330
1F
100
AcDbEntity
  8
0
  62
4
100
AcDbLine
 10
88.333162
 20
83.642322
 30
0.000000
 11
80.983162
 21
83.642322
 31
0.000000
  0
LINE
  5
179
330
1F
100
AcDbEntity
  8
0
  62
4
100
AcDbLine
 10
80.983162
 20
83.642322
 30
0.000000
 11
80.983162
 21
84.992322
 31
0.000000
  0
LINE
  5
180
330
1F
100
AcDbEntity
  8
0
  62
4
100
AcDbLine
 10
50.983162
 20
56.442322
 30
0.000000
 11
50.983162
 21
57.792322
 31
0.000000
  0
LINE
  5
181
330
1F
100
AcDbEntity
  8
0
  62
4
100
AcDbLine
 10
50.983162
 20
57.792322
 30
0.000000
 11
58.333162
 21
57.792322
 31
0.000000
  0
LINE
  5
182
330
1F
100
AcDbEntity
  8
0
  62
4
100
AcDbLine
 10
58.333162
 20
57.792322
 30
0.000000
 11
58.333162
 21
56.442322
 31
0.000000
  0
LINE
  5
183
330
1F
100
AcDbEntity
  8
0
  62
4
100
AcDbLine
 10
58.333162
 20
56.442322
 30
0.000000
 11
50.983162
 21
56.442322
 31
0.000000
  0
LINE
  5
184
330
1F
100
AcDbEntity
  8
0
  62
4
100
AcDbLine
 10
88.333162
 20
56.442322
 30
0.000000
 11
80.983162
 21
56.442322
 31
0.000000
  0
LINE
  5
185
330
1F
100
AcDbEntity
  8
0
  62
4
100
AcDbLine
 10
80.983162
 20
56.442322
 30
0.000000
 11
80.983162
 21
57.792322
 31
0.000000
  0
LINE
  5
186
330
1F
100
AcDbEntity
  8
0
  62
4
100
AcDbLine
 10
80.983162
 20
57.792322
 30
0.000000
 11
88.333162
 21
57.792322
 31
0.000000
  0
LINE
  5
187
330
1F
100
AcDbEntity
  8
0
  62
4
100
AcDbLine
 10
88.333162
 20
57.792322
 30
0.000000
 11
88.333162
 21
56.442322
 31
0.000000
  0
LINE
  5
188
330
1F
100
AcDbEntity
  8
0
  62
4
100
AcDbLine
 10
127.554646
 20
110.141808
 30
0.000000
 11
92.704859
 21
110.141808
 31
0.000000
  0
LINE
  5
189
330
1F
100
AcDbEntity
  8
0
  62
4
100
AcDbLine
 10
92.704859
 20
110.141808
 30
0.000000
 11
92.697607
 21
113.052451
 31
0.000000
  0
LINE
  5
190
330
1F
100
AcDbEntity
  8
0
  62
4
100
AcDbLine
 10
92.697607
 20
113.052451
 30
0.000000
 11
127.547164
 21
113.141605
 31
0.000000
  0
LINE
  5
191
330
1F
100
AcDbEntity
  8
0
  62
4
100
AcDbLine
 10
127.547164
 20
113.141605
 30
0.000000
 11
127.554646
 21
110.141808
 31
0.000000
  0
LINE
  5
192
330
1F
100
AcDbEntity
  8
0
  62
7
100
AcDbLine
 10
41.555449
 20
75.792285
 30
0.000000
 11
41.555449
 21
65.642359
 31
0.000000
  0
LINE
  5
193
330
1F
100
AcDbEntity
  8
0
  62
7
100
AcDbLine
 10
41.555449
 20
65.642359
 30
0.000000
 11
44.555427
 21
65.642359
 31
0.000000
  0
LINE
  5
194
330
1F
100
AcDbEntity
  8
0
  62
7
100
AcDbLine
 10
44.555427
 20
65.642359
 30
0.000000
 11
44.555427
 21
55.792433
 31
0.000000
  0
LINE
  5
195
330
1F
100
AcDbEntity
  8
0
  62
7
100
AcDbLine
 10
44.555427
 20
55.792433
 30
0.000000
 11
41.555449
 21
55.792433
 31
0.000000
  0
LINE
  5
196
330
1F
100
AcDbEntity
  8
0
  62
7
100
AcDbLine
 10
41.555449
 20
55.792433
 30
0.000000
 11
41.555449
 21
39.142555
 31
0.000000
  0
LINE
  5
197
330
1F
100
AcDbEntity
  8
0
  62
7
100
AcDbLine
 10
41.555449
 20
39.142555
 30
0.000000
 11
44.555427
 21
39.142555
 31
0.000000
  0
LINE
  5
198
330
1F
100
AcDbEntity
  8
0
  62
7
100
AcDbLine
 10
44.555427
 20
39.142555
 30
0.000000
 11
44.555427
 21
25.642655
 31
0.000000
  0
LINE
  5
199
330
1F
100
AcDbEntity
  8
0
  62
7
100
AcDbLine
 10
44.555427
 20
25.642655
 30
0.000000
 11
58.055327
 21
25.642655
 31
0.000000
  0
LINE
  5
200
330
1F
100
AcDbEntity
  8
0
  62
7
100
AcDbLine
 10
58.055327
 20
25.642655
 30
0.000000
 11
58.055327
 21
22.642677
 31
0.000000
  0
LINE
  5
201
330
1F
100
AcDbEntity
  8
0
  62
7
100
AcDbLine
 10
58.055327
 20
22.642677
 30
0.000000
 11
74.705205
 21
22.642677
 31
0.000000
  0
LINE
  5
202
330
1F
100
AcDbEntity
  8
0
  62
7
100
AcDbLine
 10
74.705205
 20
22.642677
 30
0.000000
 11
74.705205
 21
25.642655
 31
0.000000
  0
LINE
  5
203
330
1F
100
AcDbEntity
  8
0
  62
7
100
AcDbLine
 10
74.705205
 20
25.642655
 30
0.000000
 11
84.555131
 21
25.642655
 31
0.000000
  0
LINE
  5
204
330
1F
100
AcDbEntity
  8
0
  62
7
100
AcDbLine
 10
84.555131
 20
25.642655
 30
0.000000
 11
84.555131
 21
22.642677
 31
0.000000
  0
LINE
  5
205
330
1F
100
AcDbEntity
  8
0
  62
7
100
AcDbLine
 10
84.555131
 20
22.642677
 30
0.000000
 11
94.705057
 21
22.642677
 31
0.000000
  0
LINE
  5
206
330
1F
100
AcDbEntity
  8
0
  62
7
100
AcDbLine
 10
94.705057
 20
22.642677
 30
0.000000
 11
94.705057
 21
25.642655
 31
0.000000
  0
LINE
  5
207
330
1F
100
AcDbEntity
  8
0
  62
7
100
AcDbLine
 10
94.705057
 20
25.642655
 30
0.000000
 11
104.554983
 21
25.642655
 31
0.000000
  0
LINE
  5
208
330
1F
100
AcDbEntity
  8
0
  62
7
100
AcDbLine
 10
104.554983
 20
25.642655
 30
0.000000
 11
104.554983
 21
22.642677
 31
0.000000
  0
LINE
  5
209
330
1F
100
AcDbEntity
  8
0
  62
7
100
AcDbLine
 10
104.554983
 20
22.642677
 30
0.000000
 11
121.204861
 21
22.642677
 31
0.000000
  0
LINE
  5
210
330
1F
100
AcDbEntity
  8
0
  62
7
100
AcDbLine
 10
121.204861
 20
22.642677
 30
0.000000
 11
121.204861
 21
25.642655
 31
0.000000
  0
LINE
  5
211
330
1F
100
AcDbEntity
  8
0
  62
7
100
AcDbLine
 10
121.204861
 20
25.642655
 30
0.000000
 11
134.704761
 21
25.642655
 31
0.000000
  0
LINE
  5
212
330
1F
100
AcDbEntity
  8
0
  62
7
100
AcDbLine
 10
134.704761
 20
25.642655
 30
0.000000
 11
134.704761
 21
39.142555
 31
0.000000
  0
LINE
  5
213
330
1F
100
AcDbEntity
  8
0
  62
7
100
AcDbLine
 10
134.704761
 20
39.142555
 30
0.000000
 11
137.704738
 21
39.142555
 31
0.000000
  0
LINE
  5
214
330
1F
100
AcDbEntity
  8
0
  62
7
100
AcDbLine
 10
137.704738
 20
39.142555
 30
0.000000
 11
137.704738
 21
55.792433
 31
0.000000
  0
LINE
  5
215
330
1F
100
AcDbEntity
  8
0
  62
7
100
AcDbLine
 10
137.704738
 20
55.792433
 30
0.000000
 11
134.704761
 21
55.792433
 31
0.000000
  0
LINE
  5
216
330
1F
100
AcDbEntity
  8
0
  62
7
100
AcDbLine
 10
134.704761
 20
55.792433
 30
0.000000
 11
134.704761
 21
65.642359
 31
0.000000
  0
LINE
  5
217
330
1F
100
AcDbEntity
  8
0
  62
7
100
AcDbLine
 10
134.704761
 20
65.642359
 30
0.000000
 11
137.704738
 21
65.642359
 31
0.000000
  0
LINE
  5
218
330
1F
100
AcDbEntity
  8
0
  62
7
100
AcDbLine
 10
137.704738
 20
65.642359
 30
0.000000
 11
137.704738
 21
75.792285
 31
0.000000
  0
LINE
  5
219
330
1F
100
AcDbEntity
  8
0
  62
7
100
AcDbLine
 10
137.704738
 20
75.792285
 30
0.000000
 11
134.704761
 21
75.792285
 31
0.000000
  0
LINE
  5
220
330
1F
100
AcDbEntity
  8
0
  62
7
100
AcDbLine
 10
134.704761
 20
75.792285
 30
0.000000
 11
134.704761
 21
85.642211
 31
0.000000
  0
LINE
  5
221
330
1F
100
AcDbEntity
  8
0
  62
7
100
AcDbLine
 10
134.704761
 20
85.642211
 30
0.000000
 11
137.704738
 21
85.642211
 31
0.000000
  0
LINE
  5
222
330
1F
100
AcDbEntity
  8
0
  62
7
100
AcDbLine
 10
137.704738
 20
85.642211
 30
0.000000
 11
137.704738
 21
102.292089
 31
0.000000
  0
LINE
  5
223
330
1F
100
AcDbEntity
  8
0
  62
7
100
AcDbLine
 10
137.704738
 20
102.292089
 30
0.000000
 11
134.704761
 21
102.292089
 31
0.000000
  0
LINE
  5
224
330
1F
100
AcDbEntity
  8
0
  62
7
100
AcDbLine
 10
134.704761
 20
102.292089
 30
0.000000
 11
134.704761
 21
115.791989
 31
0.000000
  0
LINE
  5
225
330
1F
100
AcDbEntity
  8
0
  62
7
100
AcDbLine
 10
134.704761
 20
115.791989
 30
0.000000
 11
121.204861
 21
115.791989
 31
0.000000
  0
LINE
  5
226
330
1F
100
AcDbEntity
  8
0
  62
7
100
AcDbLine
 10
121.204861
 20
115.791989
 30
0.000000
 11
121.204861
 21
118.791966
 31
0.000000
  0
LINE
  5
227
330
1F
100
AcDbEntity
  8
0
  62
7
100
AcDbLine
 10
121.204861
 20
118.791966
 30
0.000000
 11
104.554983
 21
118.791966
 31
0.000000
  0
LINE
  5
228
330
1F
100
AcDbEntity
  8
0
  62
7
100
AcDbLine
 10
104.554983
 20
118.791966
 30
0.000000
 11
104.554983
 21
115.791989
 31
0.000000
  0
LINE
  5
229
330
1F
100
AcDbEntity
  8
0
  62
7
100
AcDbLine
 10
104.554983
 20
115.791989
 30
0.000000
 11
94.705057
 21
115.791989
 31
0.000000
  0
LINE
  5
230
330
1F
100
AcDbEntity
  8
0
  62
7
100
AcDbLine
 10
94.705057
 20
115.791989
 30
0.000000
 11
94.705057
 21
118.791966
 31
0.000000
  0
LINE
  5
231
330
1F
100
AcDbEntity
  8
0
  62
7
100
AcDbLine
 10
94.705057
 20
118.791966
 30
0.000000
 11
84.555131
 21
118.791966
 31
0.000000
  0
LINE
  5
232
330
1F
100
AcDbEntity
  8
0
  62
7
100
AcDbLine
 10
84.555131
 20
118.791966
 30
0.000000
 11
84.555131
 21
115.791989
 31
0.000000
  0
LINE
  5
233
330
1F
100
AcDbEntity
  8
0
  62
7
100
AcDbLine
 10
84.555131
 20
115.791989
 30
0.000000
 11
74.705205
 21
115.791989
 31
0.000000
  0
LINE
  5
234
330
1F
100
AcDbEntity
  8
0
  62
7
100
AcDbLine
 10
74.705205
 20
115.791989
 30
0.000000
 11
74.705205
 21
118.791966
 31
0.000000
  0
LINE
  5
235
330
1F
100
AcDbEntity
  8
0
  62
7
100
AcDbLine
 10
74.705205
 20
118.791966
 30
0.000000
 11
58.055327
 21
118.791966
 31
0.000000
  0
LINE
  5
236
330
1F
100
AcDbEntity
  8
0
  62
7
100
AcDbLine
 10
58.055327
 20
118.791966
 30
0.000000
 11
58.055327
 21
115.791989
 31
0.000000
  0
LINE
  5
237
330
1F
100
AcDbEntity
  8
0
  62
7
100
AcDbLine
 10
58.055327
 20
115.791989
 30
0.000000
 11
44.555427
 21
115.791989
 31
0.000000
  0
LINE
  5
238
330
1F
100
AcDbEntity
  8
0
  62
7
100
AcDbLine
 10
44.555427
 20
115.791989
 30
0.000000
 11
44.555427
 21
102.292089
 31
0.000000
  0
LINE
  5
239
330
1F
100
AcDbEntity
  8
0
  62
7
100
AcDbLine
 10
44.555427
 20
102.292089
 30
0.000000
 11
41.555449
 21
102.292089
 31
0.000000
  0
LINE
  5
240
330
1F
100
AcDbEntity
  8
0
  62
7
100
AcDbLine
 10
41.555449
 20
102.292089
 30
0.000000
 11
41.555449
 21
85.642211
 31
0.000000
  0
LINE
  5
241
330
1F
100
AcDbEntity
  8
0
  62
7
100
AcDbLine
 10
41.555449
 20
85.642211
 30
0.000000
 11
44.555427
 21
85.642211
 31
0.000000
  0
LINE
  5
242
330
1F
100
AcDbEntity
  8
0
  62
7
100
AcDbLine
 10
44.555427
 20
85.642211
 30
0.000000
 11
44.555427
 21
75.792285
 31
0.000000
  0
LINE
  5
243
330
1F
100
AcDbEntity
  8
0
  62
7
100
AcDbLine
 10
44.555427
 20
75.792285
 30
0.000000
 11
41.555449
 21
75.792285
 31
0.000000
  0
LINE
  5
244
330
1F
100
AcDbEntity
  8
0
  62
3
100
AcDbLine
 10
92.704859
 20
110.141808
 30
0.000000
 11
92.704859
 21
107.291808
 31
0.000000
  0
LINE
  5
245
330
1F
100
AcDbEntity
  8
0
  62
3
100
AcDbLine
 10
92.704859
 20
107.291808
 30
0.000000
 11
127.554646
 21
107.291808
 31
0.000000
  0
LINE
  5
246
330
1F
100
AcDbEntity
  8
0
  62
3
100
AcDbLine
 10
127.554646
 20
107.291808
 30
0.000000
 11
127.554646
 21
110.141808
 31
0.000000
  0
LINE
  5
247
330
1F
100
AcDbEntity
  8
0
  62
3
100
AcDbLine
 10
127.554646
 20
110.141808
 30
0.000000
 11
92.704859
 21
110.141808
 31
0.000000
 0
ENDSEC
  0
SECTION
  2
OBJECTS
  0
DICTIONARY
  5
C
330
0
100
AcDbDictionary
  3
ACAD_GROUP
350
D
  3
ACAD_LAYOUT
350
1A
  3
ACAD_MLINESTYLE
350
17
  3
ACAD_PLOTSETTINGS
350
19
1001
ACAD
1000
TREAT_AS_HARD
1070
     0
  0
DICTIONARY
  5
46
330
1F
100
AcDbDictionary
  3
ACAD_LAYOUTSELFREF
350
47
  0
DICTIONARY
  5
44
330
1B
100
AcDbDictionary
  3
ACAD_LAYOUTSELFREF
350
45
  0
DICTIONARY
  5
D
102
{ACAD_REACTORS
330
C
102
}
330
C
100
AcDbDictionary
1001
ACAD
1000
TREAT_AS_HARD
1070
     0
  0
DICTIONARY
  5
1A
102
{ACAD_REACTORS
330
C
102
}
330
C
100
AcDbDictionary
1001
ACAD
1000
TREAT_AS_HARD
1070
     0
  0
DICTIONARY
  5
17
102
{ACAD_REACTORS
330
C
102
}
330
C
100
AcDbDictionary
  3
STANDARD
350
18
1001
ACAD
1000
TREAT_AS_HARD
1070
     0
  0
DICTIONARY
  5
19
102
{ACAD_REACTORS
330
C
102
}
330
C
100
AcDbDictionary
1001
ACAD
1000
TREAT_AS_HARD
1070
     0
  0
XRECORD
  5
47
102
{ACAD_REACTORS
330
46
102
}
330
46
100
AcDbXrecord
340
1F
  0
XRECORD
  5
45
102
{ACAD_REACTORS
330
44
102
}
330
44
100
AcDbXrecord
340
1B
  0
MLINESTYLE
  5
18
102
{ACAD_REACTORS
330
17
102
}
330
17
100
AcDbMlineStyle
  2
STANDARD
 70
     0
  3

 62
   256
 51
90.0
 52
90.0
 71
     2
 49
0.5
 62
   256
  6
BYLAYER
 49
-0.5
 62
   256
  6
BYLAYER
  0
ENDSEC
  0
EOF
