G04 #@! TF.FileFunction,Copper,L2,Bot,Signal*
%FSLAX46Y46*%
G04 Gerber Fmt 4.6, Leading zero omitted, Abs format (unit mm)*
G04 Created by KiCad (PCBNEW 4.0.7) date 08/16/18 23:45:15*
%MOMM*%
%LPD*%
G01*
G04 APERTURE LIST*
%ADD10C,0.100000*%
%ADD11R,1.700000X1.700000*%
%ADD12O,1.700000X1.700000*%
%ADD13R,1.000000X1.000000*%
%ADD14O,1.000000X1.000000*%
%ADD15R,1.750000X1.750000*%
%ADD16C,1.750000*%
%ADD17C,1.600000*%
%ADD18O,1.600000X1.600000*%
%ADD19C,0.600000*%
%ADD20C,0.400000*%
G04 APERTURE END LIST*
D10*
D11*
X102806500Y-85534500D03*
D12*
X100266500Y-85534500D03*
X97726500Y-85534500D03*
X95186500Y-85534500D03*
X92646500Y-85534500D03*
X90106500Y-85534500D03*
X87566500Y-85534500D03*
X85026500Y-85534500D03*
D13*
X138684000Y-88900000D03*
D14*
X138684000Y-90170000D03*
D13*
X123698000Y-102870000D03*
D14*
X123698000Y-101600000D03*
X123698000Y-100330000D03*
X123698000Y-99060000D03*
X123698000Y-97790000D03*
X123698000Y-96520000D03*
X123698000Y-95250000D03*
X123698000Y-93980000D03*
X123698000Y-92710000D03*
X123698000Y-91440000D03*
X123698000Y-90170000D03*
X123698000Y-88900000D03*
D11*
X121158000Y-61849000D03*
D12*
X118618000Y-61849000D03*
X116078000Y-61849000D03*
X113538000Y-61849000D03*
X110998000Y-61849000D03*
X108458000Y-61849000D03*
X105918000Y-61849000D03*
X103378000Y-61849000D03*
X100838000Y-61849000D03*
X98298000Y-61849000D03*
X95758000Y-61849000D03*
X93218000Y-61849000D03*
X90678000Y-61849000D03*
X88138000Y-61849000D03*
X85598000Y-61849000D03*
X83058000Y-61849000D03*
X80518000Y-61849000D03*
D11*
X101092000Y-103886000D03*
X87630000Y-103886000D03*
X90551000Y-121285000D03*
D12*
X93091000Y-121285000D03*
X95631000Y-121285000D03*
X98171000Y-121285000D03*
D11*
X80518000Y-79629000D03*
D12*
X83058000Y-79629000D03*
X85598000Y-79629000D03*
X88138000Y-79629000D03*
X90678000Y-79629000D03*
X93218000Y-79629000D03*
X95758000Y-79629000D03*
X98298000Y-79629000D03*
X100838000Y-79629000D03*
X103378000Y-79629000D03*
X105918000Y-79629000D03*
X108458000Y-79629000D03*
X110998000Y-79629000D03*
X113538000Y-79629000D03*
X116078000Y-79629000D03*
X118618000Y-79629000D03*
X121158000Y-79629000D03*
D11*
X110744000Y-106045000D03*
D12*
X113284000Y-106045000D03*
X115824000Y-106045000D03*
D11*
X105600500Y-118173500D03*
D12*
X105600500Y-115633500D03*
X105600500Y-113093500D03*
X105600500Y-110553500D03*
D11*
X111379000Y-110871000D03*
D12*
X113919000Y-110871000D03*
X116459000Y-110871000D03*
X118999000Y-110871000D03*
X121539000Y-110871000D03*
X124079000Y-110871000D03*
D15*
X76454000Y-86614000D03*
D16*
X76454000Y-89114000D03*
X76454000Y-91614000D03*
X76454000Y-94114000D03*
X76454000Y-96614000D03*
D15*
X137922000Y-77597000D03*
D16*
X137922000Y-80097000D03*
D17*
X118935500Y-85915500D03*
D18*
X118935500Y-98615500D03*
D17*
X135763000Y-85344000D03*
D18*
X123063000Y-85344000D03*
D15*
X136652000Y-110998000D03*
D16*
X136652000Y-113498000D03*
X136652000Y-115998000D03*
X136652000Y-118498000D03*
X136652000Y-120998000D03*
X136652000Y-123498000D03*
D19*
X108331000Y-98552000D03*
X118999000Y-93345000D03*
X120904000Y-68199000D03*
X118872000Y-67437000D03*
X116713000Y-95123000D03*
X116713000Y-96774000D03*
X127889000Y-83185000D03*
X113157000Y-83185000D03*
X105918000Y-105283000D03*
X111633000Y-81661000D03*
X106680000Y-105918000D03*
X112268000Y-82423000D03*
X82677000Y-81407000D03*
X80391000Y-82169000D03*
X127635000Y-105918000D03*
X108077000Y-82804000D03*
X114300000Y-90424000D03*
X126492000Y-105918000D03*
X115189000Y-86487000D03*
X125476000Y-105664000D03*
X111887000Y-87757000D03*
X116078000Y-88519000D03*
D20*
X115824000Y-106045000D02*
X115824000Y-105918000D01*
X115824000Y-105918000D02*
X120142000Y-101600000D01*
X120142000Y-101600000D02*
X123698000Y-101600000D01*
X102806500Y-93027500D02*
X102806500Y-85534500D01*
X108331000Y-98552000D02*
X102806500Y-93027500D01*
X111379000Y-110871000D02*
X111379000Y-110490000D01*
X111379000Y-110490000D02*
X115824000Y-106045000D01*
X123698000Y-88900000D02*
X123063000Y-88900000D01*
X118999000Y-92964000D02*
X118999000Y-93345000D01*
X123063000Y-88900000D02*
X118999000Y-92964000D01*
X113284000Y-106045000D02*
X108077000Y-100838000D01*
X91313000Y-103886000D02*
X87630000Y-103886000D01*
X94361000Y-100838000D02*
X91313000Y-103886000D01*
X108077000Y-100838000D02*
X94361000Y-100838000D01*
X87630000Y-103886000D02*
X100330000Y-91186000D01*
X100330000Y-91186000D02*
X100330000Y-85598000D01*
X100330000Y-85598000D02*
X100266500Y-85534500D01*
X113284000Y-106045000D02*
X118999000Y-100330000D01*
X118999000Y-100330000D02*
X118999000Y-98679000D01*
X118999000Y-98679000D02*
X118935500Y-98615500D01*
X123698000Y-102870000D02*
X123825000Y-102870000D01*
X123825000Y-102870000D02*
X132842000Y-93853000D01*
X132842000Y-93853000D02*
X132842000Y-80137000D01*
X132842000Y-80137000D02*
X120904000Y-68199000D01*
X123698000Y-100330000D02*
X124333000Y-100330000D01*
X131826000Y-80391000D02*
X118872000Y-67437000D01*
X131826000Y-92837000D02*
X131826000Y-80391000D01*
X124333000Y-100330000D02*
X131826000Y-92837000D01*
X123698000Y-99060000D02*
X122301000Y-99060000D01*
X88646000Y-82677000D02*
X85598000Y-79629000D01*
X104267000Y-82677000D02*
X88646000Y-82677000D01*
X116713000Y-95123000D02*
X104267000Y-82677000D01*
X120015000Y-96774000D02*
X116713000Y-96774000D01*
X122301000Y-99060000D02*
X120015000Y-96774000D01*
X123444000Y-98806000D02*
X123698000Y-99060000D01*
X123698000Y-97790000D02*
X122301000Y-97790000D01*
X86868000Y-83439000D02*
X83058000Y-79629000D01*
X103505000Y-83439000D02*
X86868000Y-83439000D01*
X116078000Y-96012000D02*
X103505000Y-83439000D01*
X120523000Y-96012000D02*
X116078000Y-96012000D01*
X122301000Y-97790000D02*
X120523000Y-96012000D01*
X123698000Y-96520000D02*
X124333000Y-96520000D01*
X100457000Y-66548000D02*
X95758000Y-61849000D01*
X116713000Y-66548000D02*
X100457000Y-66548000D01*
X130937000Y-80772000D02*
X116713000Y-66548000D01*
X130937000Y-89916000D02*
X130937000Y-80772000D01*
X124333000Y-96520000D02*
X130937000Y-89916000D01*
X113157000Y-83185000D02*
X127889000Y-83185000D01*
X101092000Y-103886000D02*
X108585000Y-103886000D01*
X108585000Y-103886000D02*
X110744000Y-106045000D01*
X118618000Y-79629000D02*
X116586000Y-81661000D01*
X103632000Y-111125000D02*
X105600500Y-113093500D01*
X103632000Y-107569000D02*
X103632000Y-111125000D01*
X105918000Y-105283000D02*
X103632000Y-107569000D01*
X116586000Y-81661000D02*
X111633000Y-81661000D01*
X121158000Y-79629000D02*
X118364000Y-82423000D01*
X107315000Y-113919000D02*
X105600500Y-115633500D01*
X107315000Y-106553000D02*
X107315000Y-113919000D01*
X106680000Y-105918000D02*
X107315000Y-106553000D01*
X118364000Y-82423000D02*
X112268000Y-82423000D01*
X80010000Y-85558000D02*
X76454000Y-89114000D01*
X80010000Y-84074000D02*
X80010000Y-85558000D01*
X82677000Y-81407000D02*
X80010000Y-84074000D01*
X80391000Y-82169000D02*
X76454000Y-86106000D01*
X76454000Y-86106000D02*
X76454000Y-86614000D01*
X121666000Y-113538000D02*
X118999000Y-110871000D01*
X125730000Y-113538000D02*
X121666000Y-113538000D01*
X127635000Y-111633000D02*
X125730000Y-113538000D01*
X127635000Y-105918000D02*
X127635000Y-111633000D01*
X114300000Y-89027000D02*
X108077000Y-82804000D01*
X114300000Y-89281000D02*
X114300000Y-89027000D01*
X114300000Y-90424000D02*
X114300000Y-89281000D01*
X121539000Y-110871000D02*
X126492000Y-105918000D01*
X115189000Y-86487000D02*
X108458000Y-79756000D01*
X108458000Y-79756000D02*
X108458000Y-79629000D01*
X118872000Y-108458000D02*
X116459000Y-110871000D01*
X122682000Y-108458000D02*
X118872000Y-108458000D01*
X125476000Y-105664000D02*
X122682000Y-108458000D01*
X93218000Y-79629000D02*
X95504000Y-81915000D01*
X106045000Y-81915000D02*
X111887000Y-87757000D01*
X95504000Y-81915000D02*
X106045000Y-81915000D01*
X123063000Y-85344000D02*
X119507000Y-85344000D01*
X119507000Y-85344000D02*
X118935500Y-85915500D01*
X123253500Y-85915500D02*
X123571000Y-85598000D01*
X95758000Y-79629000D02*
X95758000Y-80518000D01*
X108712000Y-81153000D02*
X116078000Y-88519000D01*
X96393000Y-81153000D02*
X108712000Y-81153000D01*
X95758000Y-80518000D02*
X96393000Y-81153000D01*
M02*
